%TF.GenerationSoftware,KiCad,Pcbnew,9.0.7*%
%TF.CreationDate,2026-01-29T01:05:16+11:00*%
%TF.ProjectId,stratokeyster_strumbar,73747261-746f-46b6-9579-737465725f73,rev?*%
%TF.SameCoordinates,Original*%
%TF.FileFunction,Soldermask,Top*%
%TF.FilePolarity,Negative*%
%FSLAX46Y46*%
G04 Gerber Fmt 4.6, Leading zero omitted, Abs format (unit mm)*
G04 Created by KiCad (PCBNEW 9.0.7) date 2026-01-29 01:05:16*
%MOMM*%
%LPD*%
G01*
G04 APERTURE LIST*
G04 Aperture macros list*
%AMRoundRect*
0 Rectangle with rounded corners*
0 $1 Rounding radius*
0 $2 $3 $4 $5 $6 $7 $8 $9 X,Y pos of 4 corners*
0 Add a 4 corners polygon primitive as box body*
4,1,4,$2,$3,$4,$5,$6,$7,$8,$9,$2,$3,0*
0 Add four circle primitives for the rounded corners*
1,1,$1+$1,$2,$3*
1,1,$1+$1,$4,$5*
1,1,$1+$1,$6,$7*
1,1,$1+$1,$8,$9*
0 Add four rect primitives between the rounded corners*
20,1,$1+$1,$2,$3,$4,$5,0*
20,1,$1+$1,$4,$5,$6,$7,0*
20,1,$1+$1,$6,$7,$8,$9,0*
20,1,$1+$1,$8,$9,$2,$3,0*%
%AMFreePoly0*
4,1,37,0.603843,0.796157,0.639018,0.796157,0.711114,0.766294,0.766294,0.711114,0.796157,0.639018,0.796157,0.603843,0.800000,0.600000,0.800000,-0.600000,0.796157,-0.603843,0.796157,-0.639018,0.766294,-0.711114,0.711114,-0.766294,0.639018,-0.796157,0.603843,-0.796157,0.600000,-0.800000,0.000000,-0.800000,0.000000,-0.796148,-0.078414,-0.796148,-0.232228,-0.765552,-0.377117,-0.705537,
-0.507515,-0.618408,-0.618408,-0.507515,-0.705537,-0.377117,-0.765552,-0.232228,-0.796148,-0.078414,-0.796148,0.078414,-0.765552,0.232228,-0.705537,0.377117,-0.618408,0.507515,-0.507515,0.618408,-0.377117,0.705537,-0.232228,0.765552,-0.078414,0.796148,0.000000,0.796148,0.000000,0.800000,0.600000,0.800000,0.603843,0.796157,0.603843,0.796157,$1*%
%AMFreePoly1*
4,1,37,0.000000,0.796148,0.078414,0.796148,0.232228,0.765552,0.377117,0.705537,0.507515,0.618408,0.618408,0.507515,0.705537,0.377117,0.765552,0.232228,0.796148,0.078414,0.796148,-0.078414,0.765552,-0.232228,0.705537,-0.377117,0.618408,-0.507515,0.507515,-0.618408,0.377117,-0.705537,0.232228,-0.765552,0.078414,-0.796148,0.000000,-0.796148,0.000000,-0.800000,-0.600000,-0.800000,
-0.603843,-0.796157,-0.639018,-0.796157,-0.711114,-0.766294,-0.766294,-0.711114,-0.796157,-0.639018,-0.796157,-0.603843,-0.800000,-0.600000,-0.800000,0.600000,-0.796157,0.603843,-0.796157,0.639018,-0.766294,0.711114,-0.711114,0.766294,-0.639018,0.796157,-0.603843,0.796157,-0.600000,0.800000,0.000000,0.800000,0.000000,0.796148,0.000000,0.796148,$1*%
G04 Aperture macros list end*
%ADD10C,1.750000*%
%ADD11C,3.987800*%
%ADD12R,1.700000X1.700000*%
%ADD13C,1.700000*%
%ADD14C,2.200000*%
%ADD15C,1.850000*%
%ADD16RoundRect,0.200000X0.600000X0.600000X-0.600000X0.600000X-0.600000X-0.600000X0.600000X-0.600000X0*%
%ADD17C,1.600000*%
%ADD18FreePoly0,180.000000*%
%ADD19FreePoly1,180.000000*%
G04 APERTURE END LIST*
D10*
%TO.C,MX3*%
X61288760Y-66683750D03*
D11*
X56208760Y-66683750D03*
D10*
X51128760Y-66683750D03*
%TD*%
%TO.C,MX4*%
X42240010Y-85725000D03*
D11*
X37160010Y-85725000D03*
D10*
X32080010Y-85725000D03*
%TD*%
%TO.C,MX2*%
X42240010Y-66675000D03*
D11*
X37160010Y-66675000D03*
D10*
X32080010Y-66675000D03*
%TD*%
%TO.C,MX5*%
X61288760Y-85723750D03*
D11*
X56208760Y-85723750D03*
D10*
X51128760Y-85723750D03*
%TD*%
D12*
%TO.C,J1*%
X24086260Y-97869375D03*
D13*
X24086260Y-95329375D03*
X24086260Y-92789375D03*
X24086260Y-90249375D03*
X24086260Y-87709375D03*
X24086260Y-85169375D03*
X24086260Y-82629375D03*
X24086260Y-80089375D03*
X24086260Y-77549375D03*
X24086260Y-75009375D03*
X24086260Y-72469375D03*
X24086260Y-69929375D03*
X24086260Y-67389375D03*
X24086260Y-64849375D03*
X24086260Y-62309375D03*
X24086260Y-59769375D03*
X24086260Y-57229375D03*
X24086260Y-54689375D03*
%TD*%
D14*
%TO.C,A1*%
X80115690Y-40293750D03*
D15*
X79815690Y-43323750D03*
X74965690Y-43323750D03*
D14*
X74665690Y-40293750D03*
D16*
X86280690Y-40163750D03*
D17*
X86280690Y-42703750D03*
D18*
X86280690Y-45243750D03*
D17*
X86280690Y-47783750D03*
X86280690Y-50323750D03*
X86280690Y-52863750D03*
X86280690Y-55403750D03*
D18*
X86280690Y-57943750D03*
D17*
X86280690Y-60483750D03*
X86280690Y-63023750D03*
X86280690Y-65563750D03*
X86280690Y-68103750D03*
D18*
X86280690Y-70643750D03*
D17*
X86280690Y-73183750D03*
X86280690Y-75723750D03*
X86280690Y-78263750D03*
X86280690Y-80803750D03*
D18*
X86280690Y-83343750D03*
D17*
X86280690Y-85883750D03*
X86280690Y-88423750D03*
X68500690Y-88423750D03*
X68500690Y-85883750D03*
D19*
X68500690Y-83343750D03*
D17*
X68500690Y-80803750D03*
X68500690Y-78263750D03*
X68500690Y-75723750D03*
X68500690Y-73183750D03*
D19*
X68500690Y-70643750D03*
D17*
X68500690Y-68103750D03*
X68500690Y-65563750D03*
X68500690Y-63023750D03*
X68500690Y-60483750D03*
D19*
X68500690Y-57943750D03*
D17*
X68500690Y-55403750D03*
X68500690Y-52863750D03*
X68500690Y-50323750D03*
X68500690Y-47783750D03*
D19*
X68500690Y-45243750D03*
D17*
X68500690Y-42703750D03*
X68500690Y-40163750D03*
%TD*%
D10*
%TO.C,MX6*%
X61288760Y-104775000D03*
D11*
X56208760Y-104775000D03*
D10*
X51128760Y-104775000D03*
%TD*%
%TO.C,MX1*%
X42240010Y-47625000D03*
D11*
X37160010Y-47625000D03*
D10*
X32080010Y-47625000D03*
%TD*%
M02*
