M48
; DRILL file {KiCad 9.0.7} date 2026-01-29T01:05:06+1100
; FORMAT={-:-/ absolute / metric / decimal}
; #@! TF.CreationDate,2026-01-29T01:05:06+11:00
; #@! TF.GenerationSoftware,Kicad,Pcbnew,9.0.7
; #@! TF.FileFunction,NonPlated,1,2,NPTH
FMAT,2
METRIC
; #@! TA.AperFunction,NonPlated,NPTH,ComponentDrill
T1C1.750
; #@! TA.AperFunction,NonPlated,NPTH,ComponentDrill
T2C1.850
; #@! TA.AperFunction,NonPlated,NPTH,ComponentDrill
T3C2.200
; #@! TA.AperFunction,NonPlated,NPTH,ComponentDrill
T4C3.988
%
G90
G05
T1
X32.08Y-47.625
X32.08Y-66.675
X32.08Y-85.725
X42.24Y-47.625
X42.24Y-66.675
X42.24Y-85.725
X51.129Y-66.684
X51.129Y-85.724
X51.129Y-104.775
X61.289Y-66.684
X61.289Y-85.724
X61.289Y-104.775
T2
X74.966Y-43.324
X79.816Y-43.324
T3
X74.666Y-40.294
X80.116Y-40.294
T4
X37.16Y-47.625
X37.16Y-66.675
X37.16Y-85.725
X56.209Y-66.684
X56.209Y-85.724
X56.209Y-104.775
M30
