%TF.GenerationSoftware,KiCad,Pcbnew,9.0.7*%
%TF.CreationDate,2026-01-29T01:05:16+11:00*%
%TF.ProjectId,stratokeyster_strumbar,73747261-746f-46b6-9579-737465725f73,rev?*%
%TF.SameCoordinates,Original*%
%TF.FileFunction,Copper,L1,Top*%
%TF.FilePolarity,Positive*%
%FSLAX46Y46*%
G04 Gerber Fmt 4.6, Leading zero omitted, Abs format (unit mm)*
G04 Created by KiCad (PCBNEW 9.0.7) date 2026-01-29 01:05:16*
%MOMM*%
%LPD*%
G01*
G04 APERTURE LIST*
G04 Aperture macros list*
%AMRoundRect*
0 Rectangle with rounded corners*
0 $1 Rounding radius*
0 $2 $3 $4 $5 $6 $7 $8 $9 X,Y pos of 4 corners*
0 Add a 4 corners polygon primitive as box body*
4,1,4,$2,$3,$4,$5,$6,$7,$8,$9,$2,$3,0*
0 Add four circle primitives for the rounded corners*
1,1,$1+$1,$2,$3*
1,1,$1+$1,$4,$5*
1,1,$1+$1,$6,$7*
1,1,$1+$1,$8,$9*
0 Add four rect primitives between the rounded corners*
20,1,$1+$1,$2,$3,$4,$5,0*
20,1,$1+$1,$4,$5,$6,$7,0*
20,1,$1+$1,$6,$7,$8,$9,0*
20,1,$1+$1,$8,$9,$2,$3,0*%
%AMFreePoly0*
4,1,37,0.603843,0.796157,0.639018,0.796157,0.711114,0.766294,0.766294,0.711114,0.796157,0.639018,0.796157,0.603843,0.800000,0.600000,0.800000,-0.600000,0.796157,-0.603843,0.796157,-0.639018,0.766294,-0.711114,0.711114,-0.766294,0.639018,-0.796157,0.603843,-0.796157,0.600000,-0.800000,0.000000,-0.800000,0.000000,-0.796148,-0.078414,-0.796148,-0.232228,-0.765552,-0.377117,-0.705537,
-0.507515,-0.618408,-0.618408,-0.507515,-0.705537,-0.377117,-0.765552,-0.232228,-0.796148,-0.078414,-0.796148,0.078414,-0.765552,0.232228,-0.705537,0.377117,-0.618408,0.507515,-0.507515,0.618408,-0.377117,0.705537,-0.232228,0.765552,-0.078414,0.796148,0.000000,0.796148,0.000000,0.800000,0.600000,0.800000,0.603843,0.796157,0.603843,0.796157,$1*%
%AMFreePoly1*
4,1,37,0.000000,0.796148,0.078414,0.796148,0.232228,0.765552,0.377117,0.705537,0.507515,0.618408,0.618408,0.507515,0.705537,0.377117,0.765552,0.232228,0.796148,0.078414,0.796148,-0.078414,0.765552,-0.232228,0.705537,-0.377117,0.618408,-0.507515,0.507515,-0.618408,0.377117,-0.705537,0.232228,-0.765552,0.078414,-0.796148,0.000000,-0.796148,0.000000,-0.800000,-0.600000,-0.800000,
-0.603843,-0.796157,-0.639018,-0.796157,-0.711114,-0.766294,-0.766294,-0.711114,-0.796157,-0.639018,-0.796157,-0.603843,-0.800000,-0.600000,-0.800000,0.600000,-0.796157,0.603843,-0.796157,0.639018,-0.766294,0.711114,-0.711114,0.766294,-0.639018,0.796157,-0.603843,0.796157,-0.600000,0.800000,0.000000,0.800000,0.000000,0.796148,0.000000,0.796148,$1*%
G04 Aperture macros list end*
%TA.AperFunction,ComponentPad*%
%ADD10C,2.300000*%
%TD*%
%TA.AperFunction,ComponentPad*%
%ADD11R,1.700000X1.700000*%
%TD*%
%TA.AperFunction,ComponentPad*%
%ADD12C,1.700000*%
%TD*%
%TA.AperFunction,ComponentPad*%
%ADD13RoundRect,0.200000X0.600000X0.600000X-0.600000X0.600000X-0.600000X-0.600000X0.600000X-0.600000X0*%
%TD*%
%TA.AperFunction,ComponentPad*%
%ADD14C,1.600000*%
%TD*%
%TA.AperFunction,ComponentPad*%
%ADD15FreePoly0,180.000000*%
%TD*%
%TA.AperFunction,ComponentPad*%
%ADD16FreePoly1,180.000000*%
%TD*%
%TA.AperFunction,Conductor*%
%ADD17C,0.200000*%
%TD*%
G04 APERTURE END LIST*
D10*
%TO.P,MX3,2,2*%
%TO.N,Net-(A1-GPIO5)*%
X58748760Y-61603750D03*
%TO.P,MX3,1,1*%
%TO.N,Net-(D3-A)*%
X52398760Y-64143750D03*
%TD*%
%TO.P,MX4,2,2*%
%TO.N,Net-(A1-GPIO6)*%
X39700010Y-80645000D03*
%TO.P,MX4,1,1*%
%TO.N,Net-(D4-A)*%
X33350010Y-83185000D03*
%TD*%
%TO.P,MX2,2,2*%
%TO.N,Net-(A1-GPIO4)*%
X39700010Y-61595000D03*
%TO.P,MX2,1,1*%
%TO.N,Net-(D2-A)*%
X33350010Y-64135000D03*
%TD*%
%TO.P,MX5,2,2*%
%TO.N,Net-(A1-GPIO7)*%
X58748760Y-80643750D03*
%TO.P,MX5,1,1*%
%TO.N,Net-(D5-A)*%
X52398760Y-83183750D03*
%TD*%
D11*
%TO.P,J1,1,Pin_1*%
%TO.N,Net-(A1-GPIO21)*%
X24086260Y-97869375D03*
D12*
%TO.P,J1,2,Pin_2*%
%TO.N,Net-(A1-GPIO20)*%
X24086260Y-95329375D03*
%TO.P,J1,3,Pin_3*%
%TO.N,Net-(A1-GPIO19)*%
X24086260Y-92789375D03*
%TO.P,J1,4,Pin_4*%
%TO.N,Net-(A1-GPIO3)*%
X24086260Y-90249375D03*
%TO.P,J1,5,Pin_5*%
%TO.N,Net-(A1-GPIO4)*%
X24086260Y-87709375D03*
%TO.P,J1,6,Pin_6*%
%TO.N,Net-(A1-GPIO5)*%
X24086260Y-85169375D03*
%TO.P,J1,7,Pin_7*%
%TO.N,Net-(A1-GPIO6)*%
X24086260Y-82629375D03*
%TO.P,J1,8,Pin_8*%
%TO.N,Net-(A1-GPIO7)*%
X24086260Y-80089375D03*
%TO.P,J1,9,Pin_9*%
%TO.N,Net-(A1-GPIO8)*%
X24086260Y-77549375D03*
%TO.P,J1,10,Pin_10*%
%TO.N,Net-(A1-GPIO9)*%
X24086260Y-75009375D03*
%TO.P,J1,11,Pin_11*%
%TO.N,Net-(A1-GPIO10)*%
X24086260Y-72469375D03*
%TO.P,J1,12,Pin_12*%
%TO.N,Net-(A1-GPIO11)*%
X24086260Y-69929375D03*
%TO.P,J1,13,Pin_13*%
%TO.N,Net-(A1-GPIO12)*%
X24086260Y-67389375D03*
%TO.P,J1,14,Pin_14*%
%TO.N,Net-(A1-GPIO13)*%
X24086260Y-64849375D03*
%TO.P,J1,15,Pin_15*%
%TO.N,Net-(A1-GPIO14)*%
X24086260Y-62309375D03*
%TO.P,J1,16,Pin_16*%
%TO.N,Net-(A1-GPIO15)*%
X24086260Y-59769375D03*
%TO.P,J1,17,Pin_17*%
%TO.N,Net-(A1-GPIO16)*%
X24086260Y-57229375D03*
%TO.P,J1,18,Pin_18*%
%TO.N,unconnected-(J1-Pin_18-Pad18)*%
X24086260Y-54689375D03*
%TD*%
D13*
%TO.P,A1,1,GPIO0*%
%TO.N,unconnected-(A1-GPIO0-Pad1)*%
X86280690Y-40163750D03*
D14*
%TO.P,A1,2,GPIO1*%
%TO.N,unconnected-(A1-GPIO1-Pad2)*%
X86280690Y-42703750D03*
D15*
%TO.P,A1,3,GND*%
%TO.N,Net-(A1-GND-Pad13)*%
X86280690Y-45243750D03*
D14*
%TO.P,A1,4,GPIO2*%
%TO.N,unconnected-(A1-GPIO2-Pad4)*%
X86280690Y-47783750D03*
%TO.P,A1,5,GPIO3*%
%TO.N,Net-(A1-GPIO3)*%
X86280690Y-50323750D03*
%TO.P,A1,6,GPIO4*%
%TO.N,Net-(A1-GPIO4)*%
X86280690Y-52863750D03*
%TO.P,A1,7,GPIO5*%
%TO.N,Net-(A1-GPIO5)*%
X86280690Y-55403750D03*
D15*
%TO.P,A1,8,GND*%
%TO.N,Net-(A1-GND-Pad13)*%
X86280690Y-57943750D03*
D14*
%TO.P,A1,9,GPIO6*%
%TO.N,Net-(A1-GPIO6)*%
X86280690Y-60483750D03*
%TO.P,A1,10,GPIO7*%
%TO.N,Net-(A1-GPIO7)*%
X86280690Y-63023750D03*
%TO.P,A1,11,GPIO8*%
%TO.N,Net-(A1-GPIO8)*%
X86280690Y-65563750D03*
%TO.P,A1,12,GPIO9*%
%TO.N,Net-(A1-GPIO9)*%
X86280690Y-68103750D03*
D15*
%TO.P,A1,13,GND*%
%TO.N,Net-(A1-GND-Pad13)*%
X86280690Y-70643750D03*
D14*
%TO.P,A1,14,GPIO10*%
%TO.N,Net-(A1-GPIO10)*%
X86280690Y-73183750D03*
%TO.P,A1,15,GPIO11*%
%TO.N,Net-(A1-GPIO11)*%
X86280690Y-75723750D03*
%TO.P,A1,16,GPIO12*%
%TO.N,Net-(A1-GPIO12)*%
X86280690Y-78263750D03*
%TO.P,A1,17,GPIO13*%
%TO.N,Net-(A1-GPIO13)*%
X86280690Y-80803750D03*
D15*
%TO.P,A1,18,GND*%
%TO.N,Net-(A1-GND-Pad13)*%
X86280690Y-83343750D03*
D14*
%TO.P,A1,19,GPIO14*%
%TO.N,Net-(A1-GPIO14)*%
X86280690Y-85883750D03*
%TO.P,A1,20,GPIO15*%
%TO.N,Net-(A1-GPIO15)*%
X86280690Y-88423750D03*
%TO.P,A1,21,GPIO16*%
%TO.N,Net-(A1-GPIO16)*%
X68500690Y-88423750D03*
%TO.P,A1,22,GPIO17*%
%TO.N,unconnected-(A1-GPIO17-Pad22)*%
X68500690Y-85883750D03*
D16*
%TO.P,A1,23,GND*%
%TO.N,Net-(A1-GND-Pad13)*%
X68500690Y-83343750D03*
D14*
%TO.P,A1,24,GPIO18*%
%TO.N,Net-(A1-GPIO18)*%
X68500690Y-80803750D03*
%TO.P,A1,25,GPIO19*%
%TO.N,Net-(A1-GPIO19)*%
X68500690Y-78263750D03*
%TO.P,A1,26,GPIO20*%
%TO.N,Net-(A1-GPIO20)*%
X68500690Y-75723750D03*
%TO.P,A1,27,GPIO21*%
%TO.N,Net-(A1-GPIO21)*%
X68500690Y-73183750D03*
D16*
%TO.P,A1,28,GND*%
%TO.N,Net-(A1-GND-Pad13)*%
X68500690Y-70643750D03*
D14*
%TO.P,A1,29,GPIO22*%
%TO.N,unconnected-(A1-GPIO22-Pad29)*%
X68500690Y-68103750D03*
%TO.P,A1,30,RUN*%
%TO.N,unconnected-(A1-RUN-Pad30)*%
X68500690Y-65563750D03*
%TO.P,A1,31,GPIO26_ADC0*%
%TO.N,Net-(A1-GPIO26_ADC0)*%
X68500690Y-63023750D03*
%TO.P,A1,32,GPIO27_ADC1*%
%TO.N,Net-(A1-GPIO27_ADC1)*%
X68500690Y-60483750D03*
D16*
%TO.P,A1,33,AGND*%
%TO.N,unconnected-(A1-AGND-Pad33)*%
X68500690Y-57943750D03*
D14*
%TO.P,A1,34,GPIO28_ADC2*%
%TO.N,unconnected-(A1-GPIO28_ADC2-Pad34)*%
X68500690Y-55403750D03*
%TO.P,A1,35,ADC_VREF*%
%TO.N,unconnected-(A1-ADC_VREF-Pad35)*%
X68500690Y-52863750D03*
%TO.P,A1,36,3V3*%
%TO.N,unconnected-(A1-3V3-Pad36)*%
X68500690Y-50323750D03*
%TO.P,A1,37,3V3_EN*%
%TO.N,unconnected-(A1-3V3_EN-Pad37)*%
X68500690Y-47783750D03*
D16*
%TO.P,A1,38,GND*%
%TO.N,Net-(A1-GND-Pad13)*%
X68500690Y-45243750D03*
D14*
%TO.P,A1,39,VSYS*%
%TO.N,unconnected-(A1-VSYS-Pad39)*%
X68500690Y-42703750D03*
%TO.P,A1,40,VBUS*%
%TO.N,unconnected-(A1-VBUS-Pad40)*%
X68500690Y-40163750D03*
%TD*%
D10*
%TO.P,MX6,2,2*%
%TO.N,Net-(A1-GPIO8)*%
X58748760Y-99695000D03*
%TO.P,MX6,1,1*%
%TO.N,Net-(D6-A)*%
X52398760Y-102235000D03*
%TD*%
%TO.P,MX1,2,2*%
%TO.N,Net-(A1-GPIO3)*%
X39700010Y-42545000D03*
%TO.P,MX1,1,1*%
%TO.N,Net-(D1-A)*%
X33350010Y-45085000D03*
%TD*%
D17*
%TO.N,Net-(A1-GPIO3)*%
X21030268Y-87193383D02*
X24086260Y-90249375D01*
X39700010Y-42545000D02*
X28892560Y-42545000D01*
X21030268Y-50407292D02*
X21030268Y-87193383D01*
X28892560Y-42545000D02*
X21030268Y-50407292D01*
%TO.N,Net-(A1-GPIO9)*%
X27553963Y-78477078D02*
X27553963Y-89864288D01*
X24086260Y-75009375D02*
X27553963Y-78477078D01*
X88344392Y-68103750D02*
X86280690Y-68103750D01*
X91301950Y-90435387D02*
X91301950Y-71061308D01*
X91301950Y-71061308D02*
X88344392Y-68103750D01*
X32174800Y-94485125D02*
X87252212Y-94485125D01*
X27553963Y-89864288D02*
X32174800Y-94485125D01*
X87252212Y-94485125D02*
X91301950Y-90435387D01*
%TO.N,Net-(A1-GPIO11)*%
X88225323Y-75723750D02*
X86280690Y-75723750D01*
X32507000Y-93683125D02*
X86920012Y-93683125D01*
%TO.N,Net-(A1-GPIO15)*%
X29959963Y-88867688D02*
X33171400Y-92079125D01*
%TO.N,Net-(A1-GPIO14)*%
X33005300Y-92480125D02*
X86421712Y-92480125D01*
%TO.N,Net-(A1-GPIO5)*%
X92905950Y-91099787D02*
X92905950Y-60163735D01*
%TO.N,Net-(A1-GPIO15)*%
X24086260Y-59769375D02*
X29959963Y-65643078D01*
%TO.N,Net-(A1-GPIO5)*%
X25949963Y-87033078D02*
X25949963Y-90528688D01*
%TO.N,Net-(A1-GPIO16)*%
X33337577Y-91678202D02*
X65246238Y-91678202D01*
%TO.N,Net-(A1-GPIO15)*%
X82625315Y-92079125D02*
X86280690Y-88423750D01*
%TO.N,Net-(A1-GPIO16)*%
X30360963Y-88701588D02*
X33337577Y-91678202D01*
%TO.N,Net-(A1-GPIO14)*%
X29558963Y-89033788D02*
X33005300Y-92480125D01*
X86421712Y-92480125D02*
X89296950Y-89604887D01*
X89296950Y-89604887D02*
X89296950Y-87511011D01*
X29558963Y-67782078D02*
X29558963Y-89033788D01*
%TO.N,Net-(A1-GPIO11)*%
X90499950Y-77998377D02*
X88225323Y-75723750D01*
X24086260Y-69929375D02*
X28355963Y-74199078D01*
%TO.N,Net-(A1-GPIO5)*%
X87916612Y-96089125D02*
X92905950Y-91099787D01*
X92905950Y-60163735D02*
X88145965Y-55403750D01*
X88145965Y-55403750D02*
X86280690Y-55403750D01*
%TO.N,Net-(A1-GPIO15)*%
X29959963Y-65643078D02*
X29959963Y-88867688D01*
%TO.N,Net-(A1-GPIO11)*%
X90499950Y-90103187D02*
X90499950Y-77998377D01*
%TO.N,Net-(A1-GPIO15)*%
X33171400Y-92079125D02*
X82625315Y-92079125D01*
%TO.N,Net-(A1-GPIO14)*%
X89296950Y-87511011D02*
X87669689Y-85883750D01*
%TO.N,Net-(A1-GPIO11)*%
X28355963Y-74199078D02*
X28355963Y-89532088D01*
%TO.N,Net-(A1-GPIO16)*%
X65246238Y-91678202D02*
X68500690Y-88423750D01*
%TO.N,Net-(A1-GPIO11)*%
X28355963Y-89532088D02*
X32507000Y-93683125D01*
%TO.N,Net-(A1-GPIO14)*%
X24086260Y-62309375D02*
X29558963Y-67782078D01*
%TO.N,Net-(A1-GPIO11)*%
X86920012Y-93683125D02*
X90499950Y-90103187D01*
%TO.N,Net-(A1-GPIO5)*%
X25949963Y-90528688D02*
X31510400Y-96089125D01*
%TO.N,Net-(A1-GPIO16)*%
X24086260Y-57229375D02*
X30360963Y-63504078D01*
%TO.N,Net-(A1-GPIO14)*%
X87669689Y-85883750D02*
X86280690Y-85883750D01*
%TO.N,Net-(A1-GPIO16)*%
X30360963Y-63504078D02*
X30360963Y-88701588D01*
%TO.N,Net-(A1-GPIO5)*%
X24086260Y-85169375D02*
X25949963Y-87033078D01*
X31510400Y-96089125D02*
X87916612Y-96089125D01*
%TO.N,Net-(A1-GPIO3)*%
X24086260Y-90249375D02*
X25034022Y-91197137D01*
X87828469Y-50323750D02*
X86280690Y-50323750D01*
X25034022Y-91197137D02*
X25484212Y-91197137D01*
X93707950Y-56203231D02*
X87828469Y-50323750D01*
X31178200Y-96891125D02*
X88248812Y-96891125D01*
X93707950Y-91431987D02*
X93707950Y-56203231D01*
X25484212Y-91197137D02*
X31178200Y-96891125D01*
X88248812Y-96891125D02*
X93707950Y-91431987D01*
%TO.N,Net-(A1-GPIO10)*%
X27954963Y-89698188D02*
X32340900Y-94084125D01*
X27954963Y-76338078D02*
X27954963Y-89698188D01*
X24086260Y-72469375D02*
X27954963Y-76338078D01*
X90900950Y-76018125D02*
X88066575Y-73183750D01*
X88066575Y-73183750D02*
X86280690Y-73183750D01*
X32340900Y-94084125D02*
X87086112Y-94084125D01*
X87086112Y-94084125D02*
X90900950Y-90269287D01*
X90900950Y-90269287D02*
X90900950Y-76018125D01*
%TO.N,Net-(A1-GPIO6)*%
X24086260Y-82629375D02*
X26350963Y-84894078D01*
X31676500Y-95688125D02*
X87750512Y-95688125D01*
X26350963Y-90362588D02*
X31676500Y-95688125D01*
X26350963Y-84894078D02*
X26350963Y-90362588D01*
X92504950Y-90933687D02*
X92504950Y-65120552D01*
%TO.N,Net-(A1-GPIO12)*%
X90098950Y-80573942D02*
X87788758Y-78263750D01*
X90098950Y-89937087D02*
X90098950Y-80573942D01*
X32673100Y-93282125D02*
X86753912Y-93282125D01*
X28756963Y-89365988D02*
X32673100Y-93282125D01*
X87788758Y-78263750D02*
X86280690Y-78263750D01*
X28756963Y-72060078D02*
X28756963Y-89365988D01*
X24086260Y-67389375D02*
X28756963Y-72060078D01*
X86753912Y-93282125D02*
X90098950Y-89937087D01*
%TO.N,Net-(A1-GPIO13)*%
X32839200Y-92881125D02*
X86587812Y-92881125D01*
X87947506Y-80803750D02*
X86280690Y-80803750D01*
X86587812Y-92881125D02*
X89697950Y-89770987D01*
X29157963Y-69921078D02*
X29157963Y-89199888D01*
X24086260Y-64849375D02*
X29157963Y-69921078D01*
X89697950Y-82554194D02*
X87947506Y-80803750D01*
X29157963Y-89199888D02*
X32839200Y-92881125D01*
X89697950Y-89770987D02*
X89697950Y-82554194D01*
%TO.N,Net-(A1-GPIO7)*%
X87584412Y-95287125D02*
X92103950Y-90767587D01*
X88026896Y-63023750D02*
X86280690Y-63023750D01*
X24086260Y-80089375D02*
X26751963Y-82755078D01*
X92103950Y-67100804D02*
X88026896Y-63023750D01*
X31842600Y-95287125D02*
X87584412Y-95287125D01*
X26751963Y-90196488D02*
X31842600Y-95287125D01*
X92103950Y-90767587D02*
X92103950Y-67100804D01*
X26751963Y-82755078D02*
X26751963Y-90196488D01*
%TO.N,Net-(A1-GPIO6)*%
X87750512Y-95688125D02*
X92504950Y-90933687D01*
X87868148Y-60483750D02*
X86280690Y-60483750D01*
X92504950Y-65120552D02*
X87868148Y-60483750D01*
%TO.N,Net-(A1-GPIO8)*%
X24086260Y-77549375D02*
X27152963Y-80616078D01*
X32008700Y-94886125D02*
X87418312Y-94886125D01*
X88185644Y-65563750D02*
X86280690Y-65563750D01*
X91702950Y-90601487D02*
X91702950Y-69081056D01*
X27152963Y-90030388D02*
X32008700Y-94886125D01*
X87418312Y-94886125D02*
X91702950Y-90601487D01*
X91702950Y-69081056D02*
X88185644Y-65563750D01*
X27152963Y-80616078D02*
X27152963Y-90030388D01*
%TO.N,Net-(A1-GPIO4)*%
X31344300Y-96490125D02*
X88082712Y-96490125D01*
X93306950Y-91265887D02*
X93306950Y-58183483D01*
X25548963Y-89172078D02*
X25548963Y-90694788D01*
X24086260Y-87709375D02*
X25548963Y-89172078D01*
X93306950Y-58183483D02*
X87987217Y-52863750D01*
X88082712Y-96490125D02*
X93306950Y-91265887D01*
X87987217Y-52863750D02*
X86280690Y-52863750D01*
X25548963Y-90694788D02*
X31344300Y-96490125D01*
%TO.N,Net-(A1-GPIO20)*%
X20240642Y-50062718D02*
X20240642Y-50034505D01*
X20228268Y-50075092D02*
X20240642Y-50062718D01*
X24086260Y-95329375D02*
X20228268Y-91471383D01*
X64694804Y-74219812D02*
X66198742Y-75723750D01*
X64694804Y-42101123D02*
X64694804Y-74219812D01*
X62673965Y-40080284D02*
X64694804Y-42101123D01*
X66198742Y-75723750D02*
X68500690Y-75723750D01*
X20228268Y-91471383D02*
X20228268Y-50075092D01*
X20240642Y-50034505D02*
X30194863Y-40080284D01*
X30194863Y-40080284D02*
X62673965Y-40080284D01*
%TO.N,Net-(A1-GPIO21)*%
X24086260Y-97869375D02*
X20258491Y-94041605D01*
%TO.N,Net-(A1-GPIO19)*%
X20835955Y-50006292D02*
X30360963Y-40481284D01*
X20629268Y-89332383D02*
X20629268Y-50241192D01*
X65762177Y-78263750D02*
X68500690Y-78263750D01*
X20835955Y-50034505D02*
X20835955Y-50006292D01*
X30360963Y-40481284D02*
X62507865Y-40481284D01*
X20629268Y-50241192D02*
X20835955Y-50034505D01*
X62507865Y-40481284D02*
X64293804Y-42267223D01*
X64293804Y-42267223D02*
X64293804Y-76795377D01*
X24086260Y-92789375D02*
X20629268Y-89332383D01*
X64293804Y-76795377D02*
X65762177Y-78263750D01*
%TO.N,Net-(A1-GPIO21)*%
X19839642Y-49868405D02*
X19839642Y-49896618D01*
X19827268Y-49908992D02*
X19827268Y-93610382D01*
X65095804Y-41935023D02*
X62840065Y-39679284D01*
X30028763Y-39679284D02*
X19839642Y-49868405D01*
X68500690Y-73183750D02*
X66635307Y-73183750D01*
X66635307Y-73183750D02*
X65095804Y-71644247D01*
X65095804Y-71644247D02*
X65095804Y-41935023D01*
X62840065Y-39679284D02*
X30028763Y-39679284D01*
X19839642Y-49896618D02*
X19827268Y-49908992D01*
X19827268Y-93610382D02*
X20258491Y-94041605D01*
%TO.N,Net-(A1-GPIO4)*%
X21431268Y-50573392D02*
X21431268Y-85054383D01*
X22601660Y-49403000D02*
X21431268Y-50573392D01*
X27508010Y-49403000D02*
X22601660Y-49403000D01*
X39700010Y-61595000D02*
X27508010Y-49403000D01*
X21431268Y-85054383D02*
X24086260Y-87709375D01*
%TD*%
M02*
