M48
; DRILL file {KiCad 9.0.7} date 2026-01-29T01:05:06+1100
; FORMAT={-:-/ absolute / metric / decimal}
; #@! TF.CreationDate,2026-01-29T01:05:06+11:00
; #@! TF.GenerationSoftware,Kicad,Pcbnew,9.0.7
; #@! TF.FileFunction,Plated,1,2,PTH
FMAT,2
METRIC
; #@! TA.AperFunction,Plated,PTH,ComponentDrill
T1C1.000
; #@! TA.AperFunction,Plated,PTH,ComponentDrill
T2C1.524
%
G90
G05
T1
X24.086Y-54.689
X24.086Y-57.229
X24.086Y-59.769
X24.086Y-62.309
X24.086Y-64.849
X24.086Y-67.389
X24.086Y-69.929
X24.086Y-72.469
X24.086Y-75.009
X24.086Y-77.549
X24.086Y-80.089
X24.086Y-82.629
X24.086Y-85.169
X24.086Y-87.709
X24.086Y-90.249
X24.086Y-92.789
X24.086Y-95.329
X24.086Y-97.869
X68.501Y-40.164
X68.501Y-42.704
X68.501Y-45.244
X68.501Y-47.784
X68.501Y-50.324
X68.501Y-52.864
X68.501Y-55.404
X68.501Y-57.944
X68.501Y-60.484
X68.501Y-63.024
X68.501Y-65.564
X68.501Y-68.104
X68.501Y-70.644
X68.501Y-73.184
X68.501Y-75.724
X68.501Y-78.264
X68.501Y-80.804
X68.501Y-83.344
X68.501Y-85.884
X68.501Y-88.424
X86.281Y-40.164
X86.281Y-42.704
X86.281Y-45.244
X86.281Y-47.784
X86.281Y-50.324
X86.281Y-52.864
X86.281Y-55.404
X86.281Y-57.944
X86.281Y-60.484
X86.281Y-63.024
X86.281Y-65.564
X86.281Y-68.104
X86.281Y-70.644
X86.281Y-73.184
X86.281Y-75.724
X86.281Y-78.264
X86.281Y-80.804
X86.281Y-83.344
X86.281Y-85.884
X86.281Y-88.424
T2
X33.35Y-45.085
X33.35Y-64.135
X33.35Y-83.185
X39.7Y-42.545
X39.7Y-61.595
X39.7Y-80.645
X52.399Y-64.144
X52.399Y-83.184
X52.399Y-102.235
X58.749Y-61.604
X58.749Y-80.644
X58.749Y-99.695
M30
