%TF.GenerationSoftware,KiCad,Pcbnew,9.0.7*%
%TF.CreationDate,2026-01-29T01:05:16+11:00*%
%TF.ProjectId,stratokeyster_strumbar,73747261-746f-46b6-9579-737465725f73,rev?*%
%TF.SameCoordinates,Original*%
%TF.FileFunction,Legend,Bot*%
%TF.FilePolarity,Positive*%
%FSLAX46Y46*%
G04 Gerber Fmt 4.6, Leading zero omitted, Abs format (unit mm)*
G04 Created by KiCad (PCBNEW 9.0.7) date 2026-01-29 01:05:16*
%MOMM*%
%LPD*%
G01*
G04 APERTURE LIST*
%ADD10C,0.125000*%
%ADD11C,0.150000*%
%ADD12C,0.120000*%
G04 APERTURE END LIST*
D10*
X65592668Y-81278119D02*
X65592668Y-80611452D01*
X65592668Y-80801928D02*
X65545049Y-80706690D01*
X65545049Y-80706690D02*
X65497430Y-80659071D01*
X65497430Y-80659071D02*
X65402192Y-80611452D01*
X65402192Y-80611452D02*
X65306954Y-80611452D01*
X64830763Y-81278119D02*
X64926001Y-81230500D01*
X64926001Y-81230500D02*
X64973620Y-81182880D01*
X64973620Y-81182880D02*
X65021239Y-81087642D01*
X65021239Y-81087642D02*
X65021239Y-80801928D01*
X65021239Y-80801928D02*
X64973620Y-80706690D01*
X64973620Y-80706690D02*
X64926001Y-80659071D01*
X64926001Y-80659071D02*
X64830763Y-80611452D01*
X64830763Y-80611452D02*
X64687906Y-80611452D01*
X64687906Y-80611452D02*
X64592668Y-80659071D01*
X64592668Y-80659071D02*
X64545049Y-80706690D01*
X64545049Y-80706690D02*
X64497430Y-80801928D01*
X64497430Y-80801928D02*
X64497430Y-81087642D01*
X64497430Y-81087642D02*
X64545049Y-81182880D01*
X64545049Y-81182880D02*
X64592668Y-81230500D01*
X64592668Y-81230500D02*
X64687906Y-81278119D01*
X64687906Y-81278119D02*
X64830763Y-81278119D01*
X64164096Y-80611452D02*
X63973620Y-81278119D01*
X63973620Y-81278119D02*
X63783144Y-80801928D01*
X63783144Y-80801928D02*
X63592668Y-81278119D01*
X63592668Y-81278119D02*
X63402192Y-80611452D01*
X63116477Y-80278119D02*
X62497430Y-80278119D01*
X62497430Y-80278119D02*
X62830763Y-80659071D01*
X62830763Y-80659071D02*
X62687906Y-80659071D01*
X62687906Y-80659071D02*
X62592668Y-80706690D01*
X62592668Y-80706690D02*
X62545049Y-80754309D01*
X62545049Y-80754309D02*
X62497430Y-80849547D01*
X62497430Y-80849547D02*
X62497430Y-81087642D01*
X62497430Y-81087642D02*
X62545049Y-81182880D01*
X62545049Y-81182880D02*
X62592668Y-81230500D01*
X62592668Y-81230500D02*
X62687906Y-81278119D01*
X62687906Y-81278119D02*
X62973620Y-81278119D01*
X62973620Y-81278119D02*
X63068858Y-81230500D01*
X63068858Y-81230500D02*
X63116477Y-81182880D01*
X65592668Y-78611119D02*
X65592668Y-77944452D01*
X65592668Y-78134928D02*
X65545049Y-78039690D01*
X65545049Y-78039690D02*
X65497430Y-77992071D01*
X65497430Y-77992071D02*
X65402192Y-77944452D01*
X65402192Y-77944452D02*
X65306954Y-77944452D01*
X64830763Y-78611119D02*
X64926001Y-78563500D01*
X64926001Y-78563500D02*
X64973620Y-78515880D01*
X64973620Y-78515880D02*
X65021239Y-78420642D01*
X65021239Y-78420642D02*
X65021239Y-78134928D01*
X65021239Y-78134928D02*
X64973620Y-78039690D01*
X64973620Y-78039690D02*
X64926001Y-77992071D01*
X64926001Y-77992071D02*
X64830763Y-77944452D01*
X64830763Y-77944452D02*
X64687906Y-77944452D01*
X64687906Y-77944452D02*
X64592668Y-77992071D01*
X64592668Y-77992071D02*
X64545049Y-78039690D01*
X64545049Y-78039690D02*
X64497430Y-78134928D01*
X64497430Y-78134928D02*
X64497430Y-78420642D01*
X64497430Y-78420642D02*
X64545049Y-78515880D01*
X64545049Y-78515880D02*
X64592668Y-78563500D01*
X64592668Y-78563500D02*
X64687906Y-78611119D01*
X64687906Y-78611119D02*
X64830763Y-78611119D01*
X64164096Y-77944452D02*
X63973620Y-78611119D01*
X63973620Y-78611119D02*
X63783144Y-78134928D01*
X63783144Y-78134928D02*
X63592668Y-78611119D01*
X63592668Y-78611119D02*
X63402192Y-77944452D01*
X62830763Y-77611119D02*
X62735525Y-77611119D01*
X62735525Y-77611119D02*
X62640287Y-77658738D01*
X62640287Y-77658738D02*
X62592668Y-77706357D01*
X62592668Y-77706357D02*
X62545049Y-77801595D01*
X62545049Y-77801595D02*
X62497430Y-77992071D01*
X62497430Y-77992071D02*
X62497430Y-78230166D01*
X62497430Y-78230166D02*
X62545049Y-78420642D01*
X62545049Y-78420642D02*
X62592668Y-78515880D01*
X62592668Y-78515880D02*
X62640287Y-78563500D01*
X62640287Y-78563500D02*
X62735525Y-78611119D01*
X62735525Y-78611119D02*
X62830763Y-78611119D01*
X62830763Y-78611119D02*
X62926001Y-78563500D01*
X62926001Y-78563500D02*
X62973620Y-78515880D01*
X62973620Y-78515880D02*
X63021239Y-78420642D01*
X63021239Y-78420642D02*
X63068858Y-78230166D01*
X63068858Y-78230166D02*
X63068858Y-77992071D01*
X63068858Y-77992071D02*
X63021239Y-77801595D01*
X63021239Y-77801595D02*
X62973620Y-77706357D01*
X62973620Y-77706357D02*
X62926001Y-77658738D01*
X62926001Y-77658738D02*
X62830763Y-77611119D01*
X65592668Y-76198119D02*
X65592668Y-75531452D01*
X65592668Y-75721928D02*
X65545049Y-75626690D01*
X65545049Y-75626690D02*
X65497430Y-75579071D01*
X65497430Y-75579071D02*
X65402192Y-75531452D01*
X65402192Y-75531452D02*
X65306954Y-75531452D01*
X64830763Y-76198119D02*
X64926001Y-76150500D01*
X64926001Y-76150500D02*
X64973620Y-76102880D01*
X64973620Y-76102880D02*
X65021239Y-76007642D01*
X65021239Y-76007642D02*
X65021239Y-75721928D01*
X65021239Y-75721928D02*
X64973620Y-75626690D01*
X64973620Y-75626690D02*
X64926001Y-75579071D01*
X64926001Y-75579071D02*
X64830763Y-75531452D01*
X64830763Y-75531452D02*
X64687906Y-75531452D01*
X64687906Y-75531452D02*
X64592668Y-75579071D01*
X64592668Y-75579071D02*
X64545049Y-75626690D01*
X64545049Y-75626690D02*
X64497430Y-75721928D01*
X64497430Y-75721928D02*
X64497430Y-76007642D01*
X64497430Y-76007642D02*
X64545049Y-76102880D01*
X64545049Y-76102880D02*
X64592668Y-76150500D01*
X64592668Y-76150500D02*
X64687906Y-76198119D01*
X64687906Y-76198119D02*
X64830763Y-76198119D01*
X64164096Y-75531452D02*
X63973620Y-76198119D01*
X63973620Y-76198119D02*
X63783144Y-75721928D01*
X63783144Y-75721928D02*
X63592668Y-76198119D01*
X63592668Y-76198119D02*
X63402192Y-75531452D01*
X62497430Y-76198119D02*
X63068858Y-76198119D01*
X62783144Y-76198119D02*
X62783144Y-75198119D01*
X62783144Y-75198119D02*
X62878382Y-75340976D01*
X62878382Y-75340976D02*
X62973620Y-75436214D01*
X62973620Y-75436214D02*
X63068858Y-75483833D01*
X65592668Y-73658119D02*
X65592668Y-72991452D01*
X65592668Y-73181928D02*
X65545049Y-73086690D01*
X65545049Y-73086690D02*
X65497430Y-73039071D01*
X65497430Y-73039071D02*
X65402192Y-72991452D01*
X65402192Y-72991452D02*
X65306954Y-72991452D01*
X64830763Y-73658119D02*
X64926001Y-73610500D01*
X64926001Y-73610500D02*
X64973620Y-73562880D01*
X64973620Y-73562880D02*
X65021239Y-73467642D01*
X65021239Y-73467642D02*
X65021239Y-73181928D01*
X65021239Y-73181928D02*
X64973620Y-73086690D01*
X64973620Y-73086690D02*
X64926001Y-73039071D01*
X64926001Y-73039071D02*
X64830763Y-72991452D01*
X64830763Y-72991452D02*
X64687906Y-72991452D01*
X64687906Y-72991452D02*
X64592668Y-73039071D01*
X64592668Y-73039071D02*
X64545049Y-73086690D01*
X64545049Y-73086690D02*
X64497430Y-73181928D01*
X64497430Y-73181928D02*
X64497430Y-73467642D01*
X64497430Y-73467642D02*
X64545049Y-73562880D01*
X64545049Y-73562880D02*
X64592668Y-73610500D01*
X64592668Y-73610500D02*
X64687906Y-73658119D01*
X64687906Y-73658119D02*
X64830763Y-73658119D01*
X64164096Y-72991452D02*
X63973620Y-73658119D01*
X63973620Y-73658119D02*
X63783144Y-73181928D01*
X63783144Y-73181928D02*
X63592668Y-73658119D01*
X63592668Y-73658119D02*
X63402192Y-72991452D01*
X63068858Y-72753357D02*
X63021239Y-72705738D01*
X63021239Y-72705738D02*
X62926001Y-72658119D01*
X62926001Y-72658119D02*
X62687906Y-72658119D01*
X62687906Y-72658119D02*
X62592668Y-72705738D01*
X62592668Y-72705738D02*
X62545049Y-72753357D01*
X62545049Y-72753357D02*
X62497430Y-72848595D01*
X62497430Y-72848595D02*
X62497430Y-72943833D01*
X62497430Y-72943833D02*
X62545049Y-73086690D01*
X62545049Y-73086690D02*
X63116477Y-73658119D01*
X63116477Y-73658119D02*
X62497430Y-73658119D01*
X65211716Y-60910500D02*
X65306954Y-60958119D01*
X65306954Y-60958119D02*
X65497430Y-60958119D01*
X65497430Y-60958119D02*
X65592668Y-60910500D01*
X65592668Y-60910500D02*
X65640287Y-60815261D01*
X65640287Y-60815261D02*
X65640287Y-60434309D01*
X65640287Y-60434309D02*
X65592668Y-60339071D01*
X65592668Y-60339071D02*
X65497430Y-60291452D01*
X65497430Y-60291452D02*
X65306954Y-60291452D01*
X65306954Y-60291452D02*
X65211716Y-60339071D01*
X65211716Y-60339071D02*
X65164097Y-60434309D01*
X65164097Y-60434309D02*
X65164097Y-60529547D01*
X65164097Y-60529547D02*
X65640287Y-60624785D01*
X64735525Y-60291452D02*
X64735525Y-60958119D01*
X64735525Y-60386690D02*
X64687906Y-60339071D01*
X64687906Y-60339071D02*
X64592668Y-60291452D01*
X64592668Y-60291452D02*
X64449811Y-60291452D01*
X64449811Y-60291452D02*
X64354573Y-60339071D01*
X64354573Y-60339071D02*
X64306954Y-60434309D01*
X64306954Y-60434309D02*
X64306954Y-60958119D01*
X63402192Y-60910500D02*
X63497430Y-60958119D01*
X63497430Y-60958119D02*
X63687906Y-60958119D01*
X63687906Y-60958119D02*
X63783144Y-60910500D01*
X63783144Y-60910500D02*
X63830763Y-60862880D01*
X63830763Y-60862880D02*
X63878382Y-60767642D01*
X63878382Y-60767642D02*
X63878382Y-60481928D01*
X63878382Y-60481928D02*
X63830763Y-60386690D01*
X63830763Y-60386690D02*
X63783144Y-60339071D01*
X63783144Y-60339071D02*
X63687906Y-60291452D01*
X63687906Y-60291452D02*
X63497430Y-60291452D01*
X63497430Y-60291452D02*
X63402192Y-60339071D01*
X63021239Y-60672404D02*
X62545049Y-60672404D01*
X63116477Y-60958119D02*
X62783144Y-59958119D01*
X62783144Y-59958119D02*
X62449811Y-60958119D01*
X91643716Y-53290500D02*
X91738954Y-53338119D01*
X91738954Y-53338119D02*
X91929430Y-53338119D01*
X91929430Y-53338119D02*
X92024668Y-53290500D01*
X92024668Y-53290500D02*
X92072287Y-53242880D01*
X92072287Y-53242880D02*
X92119906Y-53147642D01*
X92119906Y-53147642D02*
X92119906Y-52861928D01*
X92119906Y-52861928D02*
X92072287Y-52766690D01*
X92072287Y-52766690D02*
X92024668Y-52719071D01*
X92024668Y-52719071D02*
X91929430Y-52671452D01*
X91929430Y-52671452D02*
X91738954Y-52671452D01*
X91738954Y-52671452D02*
X91643716Y-52719071D01*
X91072287Y-53338119D02*
X91167525Y-53290500D01*
X91167525Y-53290500D02*
X91215144Y-53242880D01*
X91215144Y-53242880D02*
X91262763Y-53147642D01*
X91262763Y-53147642D02*
X91262763Y-52861928D01*
X91262763Y-52861928D02*
X91215144Y-52766690D01*
X91215144Y-52766690D02*
X91167525Y-52719071D01*
X91167525Y-52719071D02*
X91072287Y-52671452D01*
X91072287Y-52671452D02*
X90929430Y-52671452D01*
X90929430Y-52671452D02*
X90834192Y-52719071D01*
X90834192Y-52719071D02*
X90786573Y-52766690D01*
X90786573Y-52766690D02*
X90738954Y-52861928D01*
X90738954Y-52861928D02*
X90738954Y-53147642D01*
X90738954Y-53147642D02*
X90786573Y-53242880D01*
X90786573Y-53242880D02*
X90834192Y-53290500D01*
X90834192Y-53290500D02*
X90929430Y-53338119D01*
X90929430Y-53338119D02*
X91072287Y-53338119D01*
X90167525Y-53338119D02*
X90262763Y-53290500D01*
X90262763Y-53290500D02*
X90310382Y-53195261D01*
X90310382Y-53195261D02*
X90310382Y-52338119D01*
X89262763Y-53338119D02*
X89834191Y-53338119D01*
X89548477Y-53338119D02*
X89548477Y-52338119D01*
X89548477Y-52338119D02*
X89643715Y-52480976D01*
X89643715Y-52480976D02*
X89738953Y-52576214D01*
X89738953Y-52576214D02*
X89834191Y-52623833D01*
X91643716Y-60910500D02*
X91738954Y-60958119D01*
X91738954Y-60958119D02*
X91929430Y-60958119D01*
X91929430Y-60958119D02*
X92024668Y-60910500D01*
X92024668Y-60910500D02*
X92072287Y-60862880D01*
X92072287Y-60862880D02*
X92119906Y-60767642D01*
X92119906Y-60767642D02*
X92119906Y-60481928D01*
X92119906Y-60481928D02*
X92072287Y-60386690D01*
X92072287Y-60386690D02*
X92024668Y-60339071D01*
X92024668Y-60339071D02*
X91929430Y-60291452D01*
X91929430Y-60291452D02*
X91738954Y-60291452D01*
X91738954Y-60291452D02*
X91643716Y-60339071D01*
X91072287Y-60958119D02*
X91167525Y-60910500D01*
X91167525Y-60910500D02*
X91215144Y-60862880D01*
X91215144Y-60862880D02*
X91262763Y-60767642D01*
X91262763Y-60767642D02*
X91262763Y-60481928D01*
X91262763Y-60481928D02*
X91215144Y-60386690D01*
X91215144Y-60386690D02*
X91167525Y-60339071D01*
X91167525Y-60339071D02*
X91072287Y-60291452D01*
X91072287Y-60291452D02*
X90929430Y-60291452D01*
X90929430Y-60291452D02*
X90834192Y-60339071D01*
X90834192Y-60339071D02*
X90786573Y-60386690D01*
X90786573Y-60386690D02*
X90738954Y-60481928D01*
X90738954Y-60481928D02*
X90738954Y-60767642D01*
X90738954Y-60767642D02*
X90786573Y-60862880D01*
X90786573Y-60862880D02*
X90834192Y-60910500D01*
X90834192Y-60910500D02*
X90929430Y-60958119D01*
X90929430Y-60958119D02*
X91072287Y-60958119D01*
X90167525Y-60958119D02*
X90262763Y-60910500D01*
X90262763Y-60910500D02*
X90310382Y-60815261D01*
X90310382Y-60815261D02*
X90310382Y-59958119D01*
X89881810Y-59958119D02*
X89262763Y-59958119D01*
X89262763Y-59958119D02*
X89596096Y-60339071D01*
X89596096Y-60339071D02*
X89453239Y-60339071D01*
X89453239Y-60339071D02*
X89358001Y-60386690D01*
X89358001Y-60386690D02*
X89310382Y-60434309D01*
X89310382Y-60434309D02*
X89262763Y-60529547D01*
X89262763Y-60529547D02*
X89262763Y-60767642D01*
X89262763Y-60767642D02*
X89310382Y-60862880D01*
X89310382Y-60862880D02*
X89358001Y-60910500D01*
X89358001Y-60910500D02*
X89453239Y-60958119D01*
X89453239Y-60958119D02*
X89738953Y-60958119D01*
X89738953Y-60958119D02*
X89834191Y-60910500D01*
X89834191Y-60910500D02*
X89881810Y-60862880D01*
X91643716Y-63450500D02*
X91738954Y-63498119D01*
X91738954Y-63498119D02*
X91929430Y-63498119D01*
X91929430Y-63498119D02*
X92024668Y-63450500D01*
X92024668Y-63450500D02*
X92072287Y-63402880D01*
X92072287Y-63402880D02*
X92119906Y-63307642D01*
X92119906Y-63307642D02*
X92119906Y-63021928D01*
X92119906Y-63021928D02*
X92072287Y-62926690D01*
X92072287Y-62926690D02*
X92024668Y-62879071D01*
X92024668Y-62879071D02*
X91929430Y-62831452D01*
X91929430Y-62831452D02*
X91738954Y-62831452D01*
X91738954Y-62831452D02*
X91643716Y-62879071D01*
X91072287Y-63498119D02*
X91167525Y-63450500D01*
X91167525Y-63450500D02*
X91215144Y-63402880D01*
X91215144Y-63402880D02*
X91262763Y-63307642D01*
X91262763Y-63307642D02*
X91262763Y-63021928D01*
X91262763Y-63021928D02*
X91215144Y-62926690D01*
X91215144Y-62926690D02*
X91167525Y-62879071D01*
X91167525Y-62879071D02*
X91072287Y-62831452D01*
X91072287Y-62831452D02*
X90929430Y-62831452D01*
X90929430Y-62831452D02*
X90834192Y-62879071D01*
X90834192Y-62879071D02*
X90786573Y-62926690D01*
X90786573Y-62926690D02*
X90738954Y-63021928D01*
X90738954Y-63021928D02*
X90738954Y-63307642D01*
X90738954Y-63307642D02*
X90786573Y-63402880D01*
X90786573Y-63402880D02*
X90834192Y-63450500D01*
X90834192Y-63450500D02*
X90929430Y-63498119D01*
X90929430Y-63498119D02*
X91072287Y-63498119D01*
X90167525Y-63498119D02*
X90262763Y-63450500D01*
X90262763Y-63450500D02*
X90310382Y-63355261D01*
X90310382Y-63355261D02*
X90310382Y-62498119D01*
X89358001Y-62831452D02*
X89358001Y-63498119D01*
X89596096Y-62450500D02*
X89834191Y-63164785D01*
X89834191Y-63164785D02*
X89215144Y-63164785D01*
X91643716Y-65863500D02*
X91738954Y-65911119D01*
X91738954Y-65911119D02*
X91929430Y-65911119D01*
X91929430Y-65911119D02*
X92024668Y-65863500D01*
X92024668Y-65863500D02*
X92072287Y-65815880D01*
X92072287Y-65815880D02*
X92119906Y-65720642D01*
X92119906Y-65720642D02*
X92119906Y-65434928D01*
X92119906Y-65434928D02*
X92072287Y-65339690D01*
X92072287Y-65339690D02*
X92024668Y-65292071D01*
X92024668Y-65292071D02*
X91929430Y-65244452D01*
X91929430Y-65244452D02*
X91738954Y-65244452D01*
X91738954Y-65244452D02*
X91643716Y-65292071D01*
X91072287Y-65911119D02*
X91167525Y-65863500D01*
X91167525Y-65863500D02*
X91215144Y-65815880D01*
X91215144Y-65815880D02*
X91262763Y-65720642D01*
X91262763Y-65720642D02*
X91262763Y-65434928D01*
X91262763Y-65434928D02*
X91215144Y-65339690D01*
X91215144Y-65339690D02*
X91167525Y-65292071D01*
X91167525Y-65292071D02*
X91072287Y-65244452D01*
X91072287Y-65244452D02*
X90929430Y-65244452D01*
X90929430Y-65244452D02*
X90834192Y-65292071D01*
X90834192Y-65292071D02*
X90786573Y-65339690D01*
X90786573Y-65339690D02*
X90738954Y-65434928D01*
X90738954Y-65434928D02*
X90738954Y-65720642D01*
X90738954Y-65720642D02*
X90786573Y-65815880D01*
X90786573Y-65815880D02*
X90834192Y-65863500D01*
X90834192Y-65863500D02*
X90929430Y-65911119D01*
X90929430Y-65911119D02*
X91072287Y-65911119D01*
X90167525Y-65911119D02*
X90262763Y-65863500D01*
X90262763Y-65863500D02*
X90310382Y-65768261D01*
X90310382Y-65768261D02*
X90310382Y-64911119D01*
X89310382Y-64911119D02*
X89786572Y-64911119D01*
X89786572Y-64911119D02*
X89834191Y-65387309D01*
X89834191Y-65387309D02*
X89786572Y-65339690D01*
X89786572Y-65339690D02*
X89691334Y-65292071D01*
X89691334Y-65292071D02*
X89453239Y-65292071D01*
X89453239Y-65292071D02*
X89358001Y-65339690D01*
X89358001Y-65339690D02*
X89310382Y-65387309D01*
X89310382Y-65387309D02*
X89262763Y-65482547D01*
X89262763Y-65482547D02*
X89262763Y-65720642D01*
X89262763Y-65720642D02*
X89310382Y-65815880D01*
X89310382Y-65815880D02*
X89358001Y-65863500D01*
X89358001Y-65863500D02*
X89453239Y-65911119D01*
X89453239Y-65911119D02*
X89691334Y-65911119D01*
X89691334Y-65911119D02*
X89786572Y-65863500D01*
X89786572Y-65863500D02*
X89834191Y-65815880D01*
X91643716Y-78690500D02*
X91738954Y-78738119D01*
X91738954Y-78738119D02*
X91929430Y-78738119D01*
X91929430Y-78738119D02*
X92024668Y-78690500D01*
X92024668Y-78690500D02*
X92072287Y-78642880D01*
X92072287Y-78642880D02*
X92119906Y-78547642D01*
X92119906Y-78547642D02*
X92119906Y-78261928D01*
X92119906Y-78261928D02*
X92072287Y-78166690D01*
X92072287Y-78166690D02*
X92024668Y-78119071D01*
X92024668Y-78119071D02*
X91929430Y-78071452D01*
X91929430Y-78071452D02*
X91738954Y-78071452D01*
X91738954Y-78071452D02*
X91643716Y-78119071D01*
X91072287Y-78738119D02*
X91167525Y-78690500D01*
X91167525Y-78690500D02*
X91215144Y-78642880D01*
X91215144Y-78642880D02*
X91262763Y-78547642D01*
X91262763Y-78547642D02*
X91262763Y-78261928D01*
X91262763Y-78261928D02*
X91215144Y-78166690D01*
X91215144Y-78166690D02*
X91167525Y-78119071D01*
X91167525Y-78119071D02*
X91072287Y-78071452D01*
X91072287Y-78071452D02*
X90929430Y-78071452D01*
X90929430Y-78071452D02*
X90834192Y-78119071D01*
X90834192Y-78119071D02*
X90786573Y-78166690D01*
X90786573Y-78166690D02*
X90738954Y-78261928D01*
X90738954Y-78261928D02*
X90738954Y-78547642D01*
X90738954Y-78547642D02*
X90786573Y-78642880D01*
X90786573Y-78642880D02*
X90834192Y-78690500D01*
X90834192Y-78690500D02*
X90929430Y-78738119D01*
X90929430Y-78738119D02*
X91072287Y-78738119D01*
X90167525Y-78738119D02*
X90262763Y-78690500D01*
X90262763Y-78690500D02*
X90310382Y-78595261D01*
X90310382Y-78595261D02*
X90310382Y-77738119D01*
X89738953Y-78738119D02*
X89548477Y-78738119D01*
X89548477Y-78738119D02*
X89453239Y-78690500D01*
X89453239Y-78690500D02*
X89405620Y-78642880D01*
X89405620Y-78642880D02*
X89310382Y-78500023D01*
X89310382Y-78500023D02*
X89262763Y-78309547D01*
X89262763Y-78309547D02*
X89262763Y-77928595D01*
X89262763Y-77928595D02*
X89310382Y-77833357D01*
X89310382Y-77833357D02*
X89358001Y-77785738D01*
X89358001Y-77785738D02*
X89453239Y-77738119D01*
X89453239Y-77738119D02*
X89643715Y-77738119D01*
X89643715Y-77738119D02*
X89738953Y-77785738D01*
X89738953Y-77785738D02*
X89786572Y-77833357D01*
X89786572Y-77833357D02*
X89834191Y-77928595D01*
X89834191Y-77928595D02*
X89834191Y-78166690D01*
X89834191Y-78166690D02*
X89786572Y-78261928D01*
X89786572Y-78261928D02*
X89738953Y-78309547D01*
X89738953Y-78309547D02*
X89643715Y-78357166D01*
X89643715Y-78357166D02*
X89453239Y-78357166D01*
X89453239Y-78357166D02*
X89358001Y-78309547D01*
X89358001Y-78309547D02*
X89310382Y-78261928D01*
X89310382Y-78261928D02*
X89262763Y-78166690D01*
X92596097Y-81230500D02*
X92691335Y-81278119D01*
X92691335Y-81278119D02*
X92881811Y-81278119D01*
X92881811Y-81278119D02*
X92977049Y-81230500D01*
X92977049Y-81230500D02*
X93024668Y-81182880D01*
X93024668Y-81182880D02*
X93072287Y-81087642D01*
X93072287Y-81087642D02*
X93072287Y-80801928D01*
X93072287Y-80801928D02*
X93024668Y-80706690D01*
X93024668Y-80706690D02*
X92977049Y-80659071D01*
X92977049Y-80659071D02*
X92881811Y-80611452D01*
X92881811Y-80611452D02*
X92691335Y-80611452D01*
X92691335Y-80611452D02*
X92596097Y-80659071D01*
X92024668Y-81278119D02*
X92119906Y-81230500D01*
X92119906Y-81230500D02*
X92167525Y-81182880D01*
X92167525Y-81182880D02*
X92215144Y-81087642D01*
X92215144Y-81087642D02*
X92215144Y-80801928D01*
X92215144Y-80801928D02*
X92167525Y-80706690D01*
X92167525Y-80706690D02*
X92119906Y-80659071D01*
X92119906Y-80659071D02*
X92024668Y-80611452D01*
X92024668Y-80611452D02*
X91881811Y-80611452D01*
X91881811Y-80611452D02*
X91786573Y-80659071D01*
X91786573Y-80659071D02*
X91738954Y-80706690D01*
X91738954Y-80706690D02*
X91691335Y-80801928D01*
X91691335Y-80801928D02*
X91691335Y-81087642D01*
X91691335Y-81087642D02*
X91738954Y-81182880D01*
X91738954Y-81182880D02*
X91786573Y-81230500D01*
X91786573Y-81230500D02*
X91881811Y-81278119D01*
X91881811Y-81278119D02*
X92024668Y-81278119D01*
X91119906Y-81278119D02*
X91215144Y-81230500D01*
X91215144Y-81230500D02*
X91262763Y-81135261D01*
X91262763Y-81135261D02*
X91262763Y-80278119D01*
X90215144Y-81278119D02*
X90786572Y-81278119D01*
X90500858Y-81278119D02*
X90500858Y-80278119D01*
X90500858Y-80278119D02*
X90596096Y-80420976D01*
X90596096Y-80420976D02*
X90691334Y-80516214D01*
X90691334Y-80516214D02*
X90786572Y-80563833D01*
X89596096Y-80278119D02*
X89500858Y-80278119D01*
X89500858Y-80278119D02*
X89405620Y-80325738D01*
X89405620Y-80325738D02*
X89358001Y-80373357D01*
X89358001Y-80373357D02*
X89310382Y-80468595D01*
X89310382Y-80468595D02*
X89262763Y-80659071D01*
X89262763Y-80659071D02*
X89262763Y-80897166D01*
X89262763Y-80897166D02*
X89310382Y-81087642D01*
X89310382Y-81087642D02*
X89358001Y-81182880D01*
X89358001Y-81182880D02*
X89405620Y-81230500D01*
X89405620Y-81230500D02*
X89500858Y-81278119D01*
X89500858Y-81278119D02*
X89596096Y-81278119D01*
X89596096Y-81278119D02*
X89691334Y-81230500D01*
X89691334Y-81230500D02*
X89738953Y-81182880D01*
X89738953Y-81182880D02*
X89786572Y-81087642D01*
X89786572Y-81087642D02*
X89834191Y-80897166D01*
X89834191Y-80897166D02*
X89834191Y-80659071D01*
X89834191Y-80659071D02*
X89786572Y-80468595D01*
X89786572Y-80468595D02*
X89738953Y-80373357D01*
X89738953Y-80373357D02*
X89691334Y-80325738D01*
X89691334Y-80325738D02*
X89596096Y-80278119D01*
X92596097Y-86310500D02*
X92691335Y-86358119D01*
X92691335Y-86358119D02*
X92881811Y-86358119D01*
X92881811Y-86358119D02*
X92977049Y-86310500D01*
X92977049Y-86310500D02*
X93024668Y-86262880D01*
X93024668Y-86262880D02*
X93072287Y-86167642D01*
X93072287Y-86167642D02*
X93072287Y-85881928D01*
X93072287Y-85881928D02*
X93024668Y-85786690D01*
X93024668Y-85786690D02*
X92977049Y-85739071D01*
X92977049Y-85739071D02*
X92881811Y-85691452D01*
X92881811Y-85691452D02*
X92691335Y-85691452D01*
X92691335Y-85691452D02*
X92596097Y-85739071D01*
X92024668Y-86358119D02*
X92119906Y-86310500D01*
X92119906Y-86310500D02*
X92167525Y-86262880D01*
X92167525Y-86262880D02*
X92215144Y-86167642D01*
X92215144Y-86167642D02*
X92215144Y-85881928D01*
X92215144Y-85881928D02*
X92167525Y-85786690D01*
X92167525Y-85786690D02*
X92119906Y-85739071D01*
X92119906Y-85739071D02*
X92024668Y-85691452D01*
X92024668Y-85691452D02*
X91881811Y-85691452D01*
X91881811Y-85691452D02*
X91786573Y-85739071D01*
X91786573Y-85739071D02*
X91738954Y-85786690D01*
X91738954Y-85786690D02*
X91691335Y-85881928D01*
X91691335Y-85881928D02*
X91691335Y-86167642D01*
X91691335Y-86167642D02*
X91738954Y-86262880D01*
X91738954Y-86262880D02*
X91786573Y-86310500D01*
X91786573Y-86310500D02*
X91881811Y-86358119D01*
X91881811Y-86358119D02*
X92024668Y-86358119D01*
X91119906Y-86358119D02*
X91215144Y-86310500D01*
X91215144Y-86310500D02*
X91262763Y-86215261D01*
X91262763Y-86215261D02*
X91262763Y-85358119D01*
X90215144Y-86358119D02*
X90786572Y-86358119D01*
X90500858Y-86358119D02*
X90500858Y-85358119D01*
X90500858Y-85358119D02*
X90596096Y-85500976D01*
X90596096Y-85500976D02*
X90691334Y-85596214D01*
X90691334Y-85596214D02*
X90786572Y-85643833D01*
X89262763Y-86358119D02*
X89834191Y-86358119D01*
X89548477Y-86358119D02*
X89548477Y-85358119D01*
X89548477Y-85358119D02*
X89643715Y-85500976D01*
X89643715Y-85500976D02*
X89738953Y-85596214D01*
X89738953Y-85596214D02*
X89834191Y-85643833D01*
X91643716Y-73610500D02*
X91738954Y-73658119D01*
X91738954Y-73658119D02*
X91929430Y-73658119D01*
X91929430Y-73658119D02*
X92024668Y-73610500D01*
X92024668Y-73610500D02*
X92072287Y-73562880D01*
X92072287Y-73562880D02*
X92119906Y-73467642D01*
X92119906Y-73467642D02*
X92119906Y-73181928D01*
X92119906Y-73181928D02*
X92072287Y-73086690D01*
X92072287Y-73086690D02*
X92024668Y-73039071D01*
X92024668Y-73039071D02*
X91929430Y-72991452D01*
X91929430Y-72991452D02*
X91738954Y-72991452D01*
X91738954Y-72991452D02*
X91643716Y-73039071D01*
X91072287Y-73658119D02*
X91167525Y-73610500D01*
X91167525Y-73610500D02*
X91215144Y-73562880D01*
X91215144Y-73562880D02*
X91262763Y-73467642D01*
X91262763Y-73467642D02*
X91262763Y-73181928D01*
X91262763Y-73181928D02*
X91215144Y-73086690D01*
X91215144Y-73086690D02*
X91167525Y-73039071D01*
X91167525Y-73039071D02*
X91072287Y-72991452D01*
X91072287Y-72991452D02*
X90929430Y-72991452D01*
X90929430Y-72991452D02*
X90834192Y-73039071D01*
X90834192Y-73039071D02*
X90786573Y-73086690D01*
X90786573Y-73086690D02*
X90738954Y-73181928D01*
X90738954Y-73181928D02*
X90738954Y-73467642D01*
X90738954Y-73467642D02*
X90786573Y-73562880D01*
X90786573Y-73562880D02*
X90834192Y-73610500D01*
X90834192Y-73610500D02*
X90929430Y-73658119D01*
X90929430Y-73658119D02*
X91072287Y-73658119D01*
X90167525Y-73658119D02*
X90262763Y-73610500D01*
X90262763Y-73610500D02*
X90310382Y-73515261D01*
X90310382Y-73515261D02*
X90310382Y-72658119D01*
X89881810Y-72658119D02*
X89215144Y-72658119D01*
X89215144Y-72658119D02*
X89643715Y-73658119D01*
X65211716Y-63450500D02*
X65306954Y-63498119D01*
X65306954Y-63498119D02*
X65497430Y-63498119D01*
X65497430Y-63498119D02*
X65592668Y-63450500D01*
X65592668Y-63450500D02*
X65640287Y-63355261D01*
X65640287Y-63355261D02*
X65640287Y-62974309D01*
X65640287Y-62974309D02*
X65592668Y-62879071D01*
X65592668Y-62879071D02*
X65497430Y-62831452D01*
X65497430Y-62831452D02*
X65306954Y-62831452D01*
X65306954Y-62831452D02*
X65211716Y-62879071D01*
X65211716Y-62879071D02*
X65164097Y-62974309D01*
X65164097Y-62974309D02*
X65164097Y-63069547D01*
X65164097Y-63069547D02*
X65640287Y-63164785D01*
X64735525Y-62831452D02*
X64735525Y-63498119D01*
X64735525Y-62926690D02*
X64687906Y-62879071D01*
X64687906Y-62879071D02*
X64592668Y-62831452D01*
X64592668Y-62831452D02*
X64449811Y-62831452D01*
X64449811Y-62831452D02*
X64354573Y-62879071D01*
X64354573Y-62879071D02*
X64306954Y-62974309D01*
X64306954Y-62974309D02*
X64306954Y-63498119D01*
X63402192Y-63450500D02*
X63497430Y-63498119D01*
X63497430Y-63498119D02*
X63687906Y-63498119D01*
X63687906Y-63498119D02*
X63783144Y-63450500D01*
X63783144Y-63450500D02*
X63830763Y-63402880D01*
X63830763Y-63402880D02*
X63878382Y-63307642D01*
X63878382Y-63307642D02*
X63878382Y-63021928D01*
X63878382Y-63021928D02*
X63830763Y-62926690D01*
X63830763Y-62926690D02*
X63783144Y-62879071D01*
X63783144Y-62879071D02*
X63687906Y-62831452D01*
X63687906Y-62831452D02*
X63497430Y-62831452D01*
X63497430Y-62831452D02*
X63402192Y-62879071D01*
X62640287Y-62974309D02*
X62497430Y-63021928D01*
X62497430Y-63021928D02*
X62449811Y-63069547D01*
X62449811Y-63069547D02*
X62402192Y-63164785D01*
X62402192Y-63164785D02*
X62402192Y-63307642D01*
X62402192Y-63307642D02*
X62449811Y-63402880D01*
X62449811Y-63402880D02*
X62497430Y-63450500D01*
X62497430Y-63450500D02*
X62592668Y-63498119D01*
X62592668Y-63498119D02*
X62973620Y-63498119D01*
X62973620Y-63498119D02*
X62973620Y-62498119D01*
X62973620Y-62498119D02*
X62640287Y-62498119D01*
X62640287Y-62498119D02*
X62545049Y-62545738D01*
X62545049Y-62545738D02*
X62497430Y-62593357D01*
X62497430Y-62593357D02*
X62449811Y-62688595D01*
X62449811Y-62688595D02*
X62449811Y-62783833D01*
X62449811Y-62783833D02*
X62497430Y-62879071D01*
X62497430Y-62879071D02*
X62545049Y-62926690D01*
X62545049Y-62926690D02*
X62640287Y-62974309D01*
X62640287Y-62974309D02*
X62973620Y-62974309D01*
X92596097Y-88850500D02*
X92691335Y-88898119D01*
X92691335Y-88898119D02*
X92881811Y-88898119D01*
X92881811Y-88898119D02*
X92977049Y-88850500D01*
X92977049Y-88850500D02*
X93024668Y-88802880D01*
X93024668Y-88802880D02*
X93072287Y-88707642D01*
X93072287Y-88707642D02*
X93072287Y-88421928D01*
X93072287Y-88421928D02*
X93024668Y-88326690D01*
X93024668Y-88326690D02*
X92977049Y-88279071D01*
X92977049Y-88279071D02*
X92881811Y-88231452D01*
X92881811Y-88231452D02*
X92691335Y-88231452D01*
X92691335Y-88231452D02*
X92596097Y-88279071D01*
X92024668Y-88898119D02*
X92119906Y-88850500D01*
X92119906Y-88850500D02*
X92167525Y-88802880D01*
X92167525Y-88802880D02*
X92215144Y-88707642D01*
X92215144Y-88707642D02*
X92215144Y-88421928D01*
X92215144Y-88421928D02*
X92167525Y-88326690D01*
X92167525Y-88326690D02*
X92119906Y-88279071D01*
X92119906Y-88279071D02*
X92024668Y-88231452D01*
X92024668Y-88231452D02*
X91881811Y-88231452D01*
X91881811Y-88231452D02*
X91786573Y-88279071D01*
X91786573Y-88279071D02*
X91738954Y-88326690D01*
X91738954Y-88326690D02*
X91691335Y-88421928D01*
X91691335Y-88421928D02*
X91691335Y-88707642D01*
X91691335Y-88707642D02*
X91738954Y-88802880D01*
X91738954Y-88802880D02*
X91786573Y-88850500D01*
X91786573Y-88850500D02*
X91881811Y-88898119D01*
X91881811Y-88898119D02*
X92024668Y-88898119D01*
X91119906Y-88898119D02*
X91215144Y-88850500D01*
X91215144Y-88850500D02*
X91262763Y-88755261D01*
X91262763Y-88755261D02*
X91262763Y-87898119D01*
X90215144Y-88898119D02*
X90786572Y-88898119D01*
X90500858Y-88898119D02*
X90500858Y-87898119D01*
X90500858Y-87898119D02*
X90596096Y-88040976D01*
X90596096Y-88040976D02*
X90691334Y-88136214D01*
X90691334Y-88136214D02*
X90786572Y-88183833D01*
X89834191Y-87993357D02*
X89786572Y-87945738D01*
X89786572Y-87945738D02*
X89691334Y-87898119D01*
X89691334Y-87898119D02*
X89453239Y-87898119D01*
X89453239Y-87898119D02*
X89358001Y-87945738D01*
X89358001Y-87945738D02*
X89310382Y-87993357D01*
X89310382Y-87993357D02*
X89262763Y-88088595D01*
X89262763Y-88088595D02*
X89262763Y-88183833D01*
X89262763Y-88183833D02*
X89310382Y-88326690D01*
X89310382Y-88326690D02*
X89881810Y-88898119D01*
X89881810Y-88898119D02*
X89262763Y-88898119D01*
X91643716Y-50750500D02*
X91738954Y-50798119D01*
X91738954Y-50798119D02*
X91929430Y-50798119D01*
X91929430Y-50798119D02*
X92024668Y-50750500D01*
X92024668Y-50750500D02*
X92072287Y-50702880D01*
X92072287Y-50702880D02*
X92119906Y-50607642D01*
X92119906Y-50607642D02*
X92119906Y-50321928D01*
X92119906Y-50321928D02*
X92072287Y-50226690D01*
X92072287Y-50226690D02*
X92024668Y-50179071D01*
X92024668Y-50179071D02*
X91929430Y-50131452D01*
X91929430Y-50131452D02*
X91738954Y-50131452D01*
X91738954Y-50131452D02*
X91643716Y-50179071D01*
X91072287Y-50798119D02*
X91167525Y-50750500D01*
X91167525Y-50750500D02*
X91215144Y-50702880D01*
X91215144Y-50702880D02*
X91262763Y-50607642D01*
X91262763Y-50607642D02*
X91262763Y-50321928D01*
X91262763Y-50321928D02*
X91215144Y-50226690D01*
X91215144Y-50226690D02*
X91167525Y-50179071D01*
X91167525Y-50179071D02*
X91072287Y-50131452D01*
X91072287Y-50131452D02*
X90929430Y-50131452D01*
X90929430Y-50131452D02*
X90834192Y-50179071D01*
X90834192Y-50179071D02*
X90786573Y-50226690D01*
X90786573Y-50226690D02*
X90738954Y-50321928D01*
X90738954Y-50321928D02*
X90738954Y-50607642D01*
X90738954Y-50607642D02*
X90786573Y-50702880D01*
X90786573Y-50702880D02*
X90834192Y-50750500D01*
X90834192Y-50750500D02*
X90929430Y-50798119D01*
X90929430Y-50798119D02*
X91072287Y-50798119D01*
X90167525Y-50798119D02*
X90262763Y-50750500D01*
X90262763Y-50750500D02*
X90310382Y-50655261D01*
X90310382Y-50655261D02*
X90310382Y-49798119D01*
X89596096Y-49798119D02*
X89500858Y-49798119D01*
X89500858Y-49798119D02*
X89405620Y-49845738D01*
X89405620Y-49845738D02*
X89358001Y-49893357D01*
X89358001Y-49893357D02*
X89310382Y-49988595D01*
X89310382Y-49988595D02*
X89262763Y-50179071D01*
X89262763Y-50179071D02*
X89262763Y-50417166D01*
X89262763Y-50417166D02*
X89310382Y-50607642D01*
X89310382Y-50607642D02*
X89358001Y-50702880D01*
X89358001Y-50702880D02*
X89405620Y-50750500D01*
X89405620Y-50750500D02*
X89500858Y-50798119D01*
X89500858Y-50798119D02*
X89596096Y-50798119D01*
X89596096Y-50798119D02*
X89691334Y-50750500D01*
X89691334Y-50750500D02*
X89738953Y-50702880D01*
X89738953Y-50702880D02*
X89786572Y-50607642D01*
X89786572Y-50607642D02*
X89834191Y-50417166D01*
X89834191Y-50417166D02*
X89834191Y-50179071D01*
X89834191Y-50179071D02*
X89786572Y-49988595D01*
X89786572Y-49988595D02*
X89738953Y-49893357D01*
X89738953Y-49893357D02*
X89691334Y-49845738D01*
X89691334Y-49845738D02*
X89596096Y-49798119D01*
X91643716Y-76150500D02*
X91738954Y-76198119D01*
X91738954Y-76198119D02*
X91929430Y-76198119D01*
X91929430Y-76198119D02*
X92024668Y-76150500D01*
X92024668Y-76150500D02*
X92072287Y-76102880D01*
X92072287Y-76102880D02*
X92119906Y-76007642D01*
X92119906Y-76007642D02*
X92119906Y-75721928D01*
X92119906Y-75721928D02*
X92072287Y-75626690D01*
X92072287Y-75626690D02*
X92024668Y-75579071D01*
X92024668Y-75579071D02*
X91929430Y-75531452D01*
X91929430Y-75531452D02*
X91738954Y-75531452D01*
X91738954Y-75531452D02*
X91643716Y-75579071D01*
X91072287Y-76198119D02*
X91167525Y-76150500D01*
X91167525Y-76150500D02*
X91215144Y-76102880D01*
X91215144Y-76102880D02*
X91262763Y-76007642D01*
X91262763Y-76007642D02*
X91262763Y-75721928D01*
X91262763Y-75721928D02*
X91215144Y-75626690D01*
X91215144Y-75626690D02*
X91167525Y-75579071D01*
X91167525Y-75579071D02*
X91072287Y-75531452D01*
X91072287Y-75531452D02*
X90929430Y-75531452D01*
X90929430Y-75531452D02*
X90834192Y-75579071D01*
X90834192Y-75579071D02*
X90786573Y-75626690D01*
X90786573Y-75626690D02*
X90738954Y-75721928D01*
X90738954Y-75721928D02*
X90738954Y-76007642D01*
X90738954Y-76007642D02*
X90786573Y-76102880D01*
X90786573Y-76102880D02*
X90834192Y-76150500D01*
X90834192Y-76150500D02*
X90929430Y-76198119D01*
X90929430Y-76198119D02*
X91072287Y-76198119D01*
X90167525Y-76198119D02*
X90262763Y-76150500D01*
X90262763Y-76150500D02*
X90310382Y-76055261D01*
X90310382Y-76055261D02*
X90310382Y-75198119D01*
X89643715Y-75626690D02*
X89738953Y-75579071D01*
X89738953Y-75579071D02*
X89786572Y-75531452D01*
X89786572Y-75531452D02*
X89834191Y-75436214D01*
X89834191Y-75436214D02*
X89834191Y-75388595D01*
X89834191Y-75388595D02*
X89786572Y-75293357D01*
X89786572Y-75293357D02*
X89738953Y-75245738D01*
X89738953Y-75245738D02*
X89643715Y-75198119D01*
X89643715Y-75198119D02*
X89453239Y-75198119D01*
X89453239Y-75198119D02*
X89358001Y-75245738D01*
X89358001Y-75245738D02*
X89310382Y-75293357D01*
X89310382Y-75293357D02*
X89262763Y-75388595D01*
X89262763Y-75388595D02*
X89262763Y-75436214D01*
X89262763Y-75436214D02*
X89310382Y-75531452D01*
X89310382Y-75531452D02*
X89358001Y-75579071D01*
X89358001Y-75579071D02*
X89453239Y-75626690D01*
X89453239Y-75626690D02*
X89643715Y-75626690D01*
X89643715Y-75626690D02*
X89738953Y-75674309D01*
X89738953Y-75674309D02*
X89786572Y-75721928D01*
X89786572Y-75721928D02*
X89834191Y-75817166D01*
X89834191Y-75817166D02*
X89834191Y-76007642D01*
X89834191Y-76007642D02*
X89786572Y-76102880D01*
X89786572Y-76102880D02*
X89738953Y-76150500D01*
X89738953Y-76150500D02*
X89643715Y-76198119D01*
X89643715Y-76198119D02*
X89453239Y-76198119D01*
X89453239Y-76198119D02*
X89358001Y-76150500D01*
X89358001Y-76150500D02*
X89310382Y-76102880D01*
X89310382Y-76102880D02*
X89262763Y-76007642D01*
X89262763Y-76007642D02*
X89262763Y-75817166D01*
X89262763Y-75817166D02*
X89310382Y-75721928D01*
X89310382Y-75721928D02*
X89358001Y-75674309D01*
X89358001Y-75674309D02*
X89453239Y-75626690D01*
X91643716Y-55830500D02*
X91738954Y-55878119D01*
X91738954Y-55878119D02*
X91929430Y-55878119D01*
X91929430Y-55878119D02*
X92024668Y-55830500D01*
X92024668Y-55830500D02*
X92072287Y-55782880D01*
X92072287Y-55782880D02*
X92119906Y-55687642D01*
X92119906Y-55687642D02*
X92119906Y-55401928D01*
X92119906Y-55401928D02*
X92072287Y-55306690D01*
X92072287Y-55306690D02*
X92024668Y-55259071D01*
X92024668Y-55259071D02*
X91929430Y-55211452D01*
X91929430Y-55211452D02*
X91738954Y-55211452D01*
X91738954Y-55211452D02*
X91643716Y-55259071D01*
X91072287Y-55878119D02*
X91167525Y-55830500D01*
X91167525Y-55830500D02*
X91215144Y-55782880D01*
X91215144Y-55782880D02*
X91262763Y-55687642D01*
X91262763Y-55687642D02*
X91262763Y-55401928D01*
X91262763Y-55401928D02*
X91215144Y-55306690D01*
X91215144Y-55306690D02*
X91167525Y-55259071D01*
X91167525Y-55259071D02*
X91072287Y-55211452D01*
X91072287Y-55211452D02*
X90929430Y-55211452D01*
X90929430Y-55211452D02*
X90834192Y-55259071D01*
X90834192Y-55259071D02*
X90786573Y-55306690D01*
X90786573Y-55306690D02*
X90738954Y-55401928D01*
X90738954Y-55401928D02*
X90738954Y-55687642D01*
X90738954Y-55687642D02*
X90786573Y-55782880D01*
X90786573Y-55782880D02*
X90834192Y-55830500D01*
X90834192Y-55830500D02*
X90929430Y-55878119D01*
X90929430Y-55878119D02*
X91072287Y-55878119D01*
X90167525Y-55878119D02*
X90262763Y-55830500D01*
X90262763Y-55830500D02*
X90310382Y-55735261D01*
X90310382Y-55735261D02*
X90310382Y-54878119D01*
X89834191Y-54973357D02*
X89786572Y-54925738D01*
X89786572Y-54925738D02*
X89691334Y-54878119D01*
X89691334Y-54878119D02*
X89453239Y-54878119D01*
X89453239Y-54878119D02*
X89358001Y-54925738D01*
X89358001Y-54925738D02*
X89310382Y-54973357D01*
X89310382Y-54973357D02*
X89262763Y-55068595D01*
X89262763Y-55068595D02*
X89262763Y-55163833D01*
X89262763Y-55163833D02*
X89310382Y-55306690D01*
X89310382Y-55306690D02*
X89881810Y-55878119D01*
X89881810Y-55878119D02*
X89262763Y-55878119D01*
X91643716Y-68530500D02*
X91738954Y-68578119D01*
X91738954Y-68578119D02*
X91929430Y-68578119D01*
X91929430Y-68578119D02*
X92024668Y-68530500D01*
X92024668Y-68530500D02*
X92072287Y-68482880D01*
X92072287Y-68482880D02*
X92119906Y-68387642D01*
X92119906Y-68387642D02*
X92119906Y-68101928D01*
X92119906Y-68101928D02*
X92072287Y-68006690D01*
X92072287Y-68006690D02*
X92024668Y-67959071D01*
X92024668Y-67959071D02*
X91929430Y-67911452D01*
X91929430Y-67911452D02*
X91738954Y-67911452D01*
X91738954Y-67911452D02*
X91643716Y-67959071D01*
X91072287Y-68578119D02*
X91167525Y-68530500D01*
X91167525Y-68530500D02*
X91215144Y-68482880D01*
X91215144Y-68482880D02*
X91262763Y-68387642D01*
X91262763Y-68387642D02*
X91262763Y-68101928D01*
X91262763Y-68101928D02*
X91215144Y-68006690D01*
X91215144Y-68006690D02*
X91167525Y-67959071D01*
X91167525Y-67959071D02*
X91072287Y-67911452D01*
X91072287Y-67911452D02*
X90929430Y-67911452D01*
X90929430Y-67911452D02*
X90834192Y-67959071D01*
X90834192Y-67959071D02*
X90786573Y-68006690D01*
X90786573Y-68006690D02*
X90738954Y-68101928D01*
X90738954Y-68101928D02*
X90738954Y-68387642D01*
X90738954Y-68387642D02*
X90786573Y-68482880D01*
X90786573Y-68482880D02*
X90834192Y-68530500D01*
X90834192Y-68530500D02*
X90929430Y-68578119D01*
X90929430Y-68578119D02*
X91072287Y-68578119D01*
X90167525Y-68578119D02*
X90262763Y-68530500D01*
X90262763Y-68530500D02*
X90310382Y-68435261D01*
X90310382Y-68435261D02*
X90310382Y-67578119D01*
X89358001Y-67578119D02*
X89548477Y-67578119D01*
X89548477Y-67578119D02*
X89643715Y-67625738D01*
X89643715Y-67625738D02*
X89691334Y-67673357D01*
X89691334Y-67673357D02*
X89786572Y-67816214D01*
X89786572Y-67816214D02*
X89834191Y-68006690D01*
X89834191Y-68006690D02*
X89834191Y-68387642D01*
X89834191Y-68387642D02*
X89786572Y-68482880D01*
X89786572Y-68482880D02*
X89738953Y-68530500D01*
X89738953Y-68530500D02*
X89643715Y-68578119D01*
X89643715Y-68578119D02*
X89453239Y-68578119D01*
X89453239Y-68578119D02*
X89358001Y-68530500D01*
X89358001Y-68530500D02*
X89310382Y-68482880D01*
X89310382Y-68482880D02*
X89262763Y-68387642D01*
X89262763Y-68387642D02*
X89262763Y-68149547D01*
X89262763Y-68149547D02*
X89310382Y-68054309D01*
X89310382Y-68054309D02*
X89358001Y-68006690D01*
X89358001Y-68006690D02*
X89453239Y-67959071D01*
X89453239Y-67959071D02*
X89643715Y-67959071D01*
X89643715Y-67959071D02*
X89738953Y-68006690D01*
X89738953Y-68006690D02*
X89786572Y-68054309D01*
X89786572Y-68054309D02*
X89834191Y-68149547D01*
X65164097Y-88850500D02*
X65259335Y-88898119D01*
X65259335Y-88898119D02*
X65449811Y-88898119D01*
X65449811Y-88898119D02*
X65545049Y-88850500D01*
X65545049Y-88850500D02*
X65592668Y-88802880D01*
X65592668Y-88802880D02*
X65640287Y-88707642D01*
X65640287Y-88707642D02*
X65640287Y-88421928D01*
X65640287Y-88421928D02*
X65592668Y-88326690D01*
X65592668Y-88326690D02*
X65545049Y-88279071D01*
X65545049Y-88279071D02*
X65449811Y-88231452D01*
X65449811Y-88231452D02*
X65259335Y-88231452D01*
X65259335Y-88231452D02*
X65164097Y-88279071D01*
X64592668Y-88898119D02*
X64687906Y-88850500D01*
X64687906Y-88850500D02*
X64735525Y-88802880D01*
X64735525Y-88802880D02*
X64783144Y-88707642D01*
X64783144Y-88707642D02*
X64783144Y-88421928D01*
X64783144Y-88421928D02*
X64735525Y-88326690D01*
X64735525Y-88326690D02*
X64687906Y-88279071D01*
X64687906Y-88279071D02*
X64592668Y-88231452D01*
X64592668Y-88231452D02*
X64449811Y-88231452D01*
X64449811Y-88231452D02*
X64354573Y-88279071D01*
X64354573Y-88279071D02*
X64306954Y-88326690D01*
X64306954Y-88326690D02*
X64259335Y-88421928D01*
X64259335Y-88421928D02*
X64259335Y-88707642D01*
X64259335Y-88707642D02*
X64306954Y-88802880D01*
X64306954Y-88802880D02*
X64354573Y-88850500D01*
X64354573Y-88850500D02*
X64449811Y-88898119D01*
X64449811Y-88898119D02*
X64592668Y-88898119D01*
X63687906Y-88898119D02*
X63783144Y-88850500D01*
X63783144Y-88850500D02*
X63830763Y-88755261D01*
X63830763Y-88755261D02*
X63830763Y-87898119D01*
X62783144Y-88898119D02*
X63354572Y-88898119D01*
X63068858Y-88898119D02*
X63068858Y-87898119D01*
X63068858Y-87898119D02*
X63164096Y-88040976D01*
X63164096Y-88040976D02*
X63259334Y-88136214D01*
X63259334Y-88136214D02*
X63354572Y-88183833D01*
X62449810Y-87898119D02*
X61830763Y-87898119D01*
X61830763Y-87898119D02*
X62164096Y-88279071D01*
X62164096Y-88279071D02*
X62021239Y-88279071D01*
X62021239Y-88279071D02*
X61926001Y-88326690D01*
X61926001Y-88326690D02*
X61878382Y-88374309D01*
X61878382Y-88374309D02*
X61830763Y-88469547D01*
X61830763Y-88469547D02*
X61830763Y-88707642D01*
X61830763Y-88707642D02*
X61878382Y-88802880D01*
X61878382Y-88802880D02*
X61926001Y-88850500D01*
X61926001Y-88850500D02*
X62021239Y-88898119D01*
X62021239Y-88898119D02*
X62306953Y-88898119D01*
X62306953Y-88898119D02*
X62402191Y-88850500D01*
X62402191Y-88850500D02*
X62449810Y-88802880D01*
D11*
X57256378Y-63138569D02*
X56637331Y-63138569D01*
X56637331Y-63138569D02*
X56970664Y-63519521D01*
X56970664Y-63519521D02*
X56827807Y-63519521D01*
X56827807Y-63519521D02*
X56732569Y-63567140D01*
X56732569Y-63567140D02*
X56684950Y-63614759D01*
X56684950Y-63614759D02*
X56637331Y-63709997D01*
X56637331Y-63709997D02*
X56637331Y-63948092D01*
X56637331Y-63948092D02*
X56684950Y-64043330D01*
X56684950Y-64043330D02*
X56732569Y-64090950D01*
X56732569Y-64090950D02*
X56827807Y-64138569D01*
X56827807Y-64138569D02*
X57113521Y-64138569D01*
X57113521Y-64138569D02*
X57208759Y-64090950D01*
X57208759Y-64090950D02*
X57256378Y-64043330D01*
X56161140Y-64090950D02*
X56161140Y-64138569D01*
X56161140Y-64138569D02*
X56208759Y-64233807D01*
X56208759Y-64233807D02*
X56256378Y-64281426D01*
X55780188Y-63233807D02*
X55732569Y-63186188D01*
X55732569Y-63186188D02*
X55637331Y-63138569D01*
X55637331Y-63138569D02*
X55399236Y-63138569D01*
X55399236Y-63138569D02*
X55303998Y-63186188D01*
X55303998Y-63186188D02*
X55256379Y-63233807D01*
X55256379Y-63233807D02*
X55208760Y-63329045D01*
X55208760Y-63329045D02*
X55208760Y-63424283D01*
X55208760Y-63424283D02*
X55256379Y-63567140D01*
X55256379Y-63567140D02*
X55827807Y-64138569D01*
X55827807Y-64138569D02*
X55208760Y-64138569D01*
X38207628Y-82179819D02*
X37588581Y-82179819D01*
X37588581Y-82179819D02*
X37921914Y-82560771D01*
X37921914Y-82560771D02*
X37779057Y-82560771D01*
X37779057Y-82560771D02*
X37683819Y-82608390D01*
X37683819Y-82608390D02*
X37636200Y-82656009D01*
X37636200Y-82656009D02*
X37588581Y-82751247D01*
X37588581Y-82751247D02*
X37588581Y-82989342D01*
X37588581Y-82989342D02*
X37636200Y-83084580D01*
X37636200Y-83084580D02*
X37683819Y-83132200D01*
X37683819Y-83132200D02*
X37779057Y-83179819D01*
X37779057Y-83179819D02*
X38064771Y-83179819D01*
X38064771Y-83179819D02*
X38160009Y-83132200D01*
X38160009Y-83132200D02*
X38207628Y-83084580D01*
X37112390Y-83132200D02*
X37112390Y-83179819D01*
X37112390Y-83179819D02*
X37160009Y-83275057D01*
X37160009Y-83275057D02*
X37207628Y-83322676D01*
X36779057Y-82179819D02*
X36160010Y-82179819D01*
X36160010Y-82179819D02*
X36493343Y-82560771D01*
X36493343Y-82560771D02*
X36350486Y-82560771D01*
X36350486Y-82560771D02*
X36255248Y-82608390D01*
X36255248Y-82608390D02*
X36207629Y-82656009D01*
X36207629Y-82656009D02*
X36160010Y-82751247D01*
X36160010Y-82751247D02*
X36160010Y-82989342D01*
X36160010Y-82989342D02*
X36207629Y-83084580D01*
X36207629Y-83084580D02*
X36255248Y-83132200D01*
X36255248Y-83132200D02*
X36350486Y-83179819D01*
X36350486Y-83179819D02*
X36636200Y-83179819D01*
X36636200Y-83179819D02*
X36731438Y-83132200D01*
X36731438Y-83132200D02*
X36779057Y-83084580D01*
X38207628Y-63129819D02*
X37588581Y-63129819D01*
X37588581Y-63129819D02*
X37921914Y-63510771D01*
X37921914Y-63510771D02*
X37779057Y-63510771D01*
X37779057Y-63510771D02*
X37683819Y-63558390D01*
X37683819Y-63558390D02*
X37636200Y-63606009D01*
X37636200Y-63606009D02*
X37588581Y-63701247D01*
X37588581Y-63701247D02*
X37588581Y-63939342D01*
X37588581Y-63939342D02*
X37636200Y-64034580D01*
X37636200Y-64034580D02*
X37683819Y-64082200D01*
X37683819Y-64082200D02*
X37779057Y-64129819D01*
X37779057Y-64129819D02*
X38064771Y-64129819D01*
X38064771Y-64129819D02*
X38160009Y-64082200D01*
X38160009Y-64082200D02*
X38207628Y-64034580D01*
X37112390Y-64082200D02*
X37112390Y-64129819D01*
X37112390Y-64129819D02*
X37160009Y-64225057D01*
X37160009Y-64225057D02*
X37207628Y-64272676D01*
X36160010Y-64129819D02*
X36731438Y-64129819D01*
X36445724Y-64129819D02*
X36445724Y-63129819D01*
X36445724Y-63129819D02*
X36540962Y-63272676D01*
X36540962Y-63272676D02*
X36636200Y-63367914D01*
X36636200Y-63367914D02*
X36731438Y-63415533D01*
X57256378Y-82178569D02*
X56637331Y-82178569D01*
X56637331Y-82178569D02*
X56970664Y-82559521D01*
X56970664Y-82559521D02*
X56827807Y-82559521D01*
X56827807Y-82559521D02*
X56732569Y-82607140D01*
X56732569Y-82607140D02*
X56684950Y-82654759D01*
X56684950Y-82654759D02*
X56637331Y-82749997D01*
X56637331Y-82749997D02*
X56637331Y-82988092D01*
X56637331Y-82988092D02*
X56684950Y-83083330D01*
X56684950Y-83083330D02*
X56732569Y-83130950D01*
X56732569Y-83130950D02*
X56827807Y-83178569D01*
X56827807Y-83178569D02*
X57113521Y-83178569D01*
X57113521Y-83178569D02*
X57208759Y-83130950D01*
X57208759Y-83130950D02*
X57256378Y-83083330D01*
X56161140Y-83130950D02*
X56161140Y-83178569D01*
X56161140Y-83178569D02*
X56208759Y-83273807D01*
X56208759Y-83273807D02*
X56256378Y-83321426D01*
X55303998Y-82511902D02*
X55303998Y-83178569D01*
X55542093Y-82130950D02*
X55780188Y-82845235D01*
X55780188Y-82845235D02*
X55161141Y-82845235D01*
X51120485Y-44684189D02*
X50120485Y-44684189D01*
X50120485Y-44684189D02*
X50120485Y-44922284D01*
X50120485Y-44922284D02*
X50168104Y-45065141D01*
X50168104Y-45065141D02*
X50263342Y-45160379D01*
X50263342Y-45160379D02*
X50358580Y-45207998D01*
X50358580Y-45207998D02*
X50549056Y-45255617D01*
X50549056Y-45255617D02*
X50691913Y-45255617D01*
X50691913Y-45255617D02*
X50882389Y-45207998D01*
X50882389Y-45207998D02*
X50977627Y-45160379D01*
X50977627Y-45160379D02*
X51072866Y-45065141D01*
X51072866Y-45065141D02*
X51120485Y-44922284D01*
X51120485Y-44922284D02*
X51120485Y-44684189D01*
X51120485Y-46207998D02*
X51120485Y-45636570D01*
X51120485Y-45922284D02*
X50120485Y-45922284D01*
X50120485Y-45922284D02*
X50263342Y-45827046D01*
X50263342Y-45827046D02*
X50358580Y-45731808D01*
X50358580Y-45731808D02*
X50406199Y-45636570D01*
X51120485Y-47160379D02*
X51120485Y-46588951D01*
X51120485Y-46874665D02*
X50120485Y-46874665D01*
X50120485Y-46874665D02*
X50263342Y-46779427D01*
X50263342Y-46779427D02*
X50358580Y-46684189D01*
X50358580Y-46684189D02*
X50406199Y-46588951D01*
X57265604Y-97554819D02*
X57265604Y-96554819D01*
X57265604Y-96554819D02*
X57027509Y-96554819D01*
X57027509Y-96554819D02*
X56884652Y-96602438D01*
X56884652Y-96602438D02*
X56789414Y-96697676D01*
X56789414Y-96697676D02*
X56741795Y-96792914D01*
X56741795Y-96792914D02*
X56694176Y-96983390D01*
X56694176Y-96983390D02*
X56694176Y-97126247D01*
X56694176Y-97126247D02*
X56741795Y-97316723D01*
X56741795Y-97316723D02*
X56789414Y-97411961D01*
X56789414Y-97411961D02*
X56884652Y-97507200D01*
X56884652Y-97507200D02*
X57027509Y-97554819D01*
X57027509Y-97554819D02*
X57265604Y-97554819D01*
X55837033Y-96554819D02*
X56027509Y-96554819D01*
X56027509Y-96554819D02*
X56122747Y-96602438D01*
X56122747Y-96602438D02*
X56170366Y-96650057D01*
X56170366Y-96650057D02*
X56265604Y-96792914D01*
X56265604Y-96792914D02*
X56313223Y-96983390D01*
X56313223Y-96983390D02*
X56313223Y-97364342D01*
X56313223Y-97364342D02*
X56265604Y-97459580D01*
X56265604Y-97459580D02*
X56217985Y-97507200D01*
X56217985Y-97507200D02*
X56122747Y-97554819D01*
X56122747Y-97554819D02*
X55932271Y-97554819D01*
X55932271Y-97554819D02*
X55837033Y-97507200D01*
X55837033Y-97507200D02*
X55789414Y-97459580D01*
X55789414Y-97459580D02*
X55741795Y-97364342D01*
X55741795Y-97364342D02*
X55741795Y-97126247D01*
X55741795Y-97126247D02*
X55789414Y-97031009D01*
X55789414Y-97031009D02*
X55837033Y-96983390D01*
X55837033Y-96983390D02*
X55932271Y-96935771D01*
X55932271Y-96935771D02*
X56122747Y-96935771D01*
X56122747Y-96935771D02*
X56217985Y-96983390D01*
X56217985Y-96983390D02*
X56265604Y-97031009D01*
X56265604Y-97031009D02*
X56313223Y-97126247D01*
X54097004Y-44670719D02*
X53097004Y-44670719D01*
X53097004Y-44670719D02*
X53097004Y-44908814D01*
X53097004Y-44908814D02*
X53144623Y-45051671D01*
X53144623Y-45051671D02*
X53239861Y-45146909D01*
X53239861Y-45146909D02*
X53335099Y-45194528D01*
X53335099Y-45194528D02*
X53525575Y-45242147D01*
X53525575Y-45242147D02*
X53668432Y-45242147D01*
X53668432Y-45242147D02*
X53858908Y-45194528D01*
X53858908Y-45194528D02*
X53954146Y-45146909D01*
X53954146Y-45146909D02*
X54049385Y-45051671D01*
X54049385Y-45051671D02*
X54097004Y-44908814D01*
X54097004Y-44908814D02*
X54097004Y-44670719D01*
X54097004Y-46194528D02*
X54097004Y-45623100D01*
X54097004Y-45908814D02*
X53097004Y-45908814D01*
X53097004Y-45908814D02*
X53239861Y-45813576D01*
X53239861Y-45813576D02*
X53335099Y-45718338D01*
X53335099Y-45718338D02*
X53382718Y-45623100D01*
X53192242Y-46575481D02*
X53144623Y-46623100D01*
X53144623Y-46623100D02*
X53097004Y-46718338D01*
X53097004Y-46718338D02*
X53097004Y-46956433D01*
X53097004Y-46956433D02*
X53144623Y-47051671D01*
X53144623Y-47051671D02*
X53192242Y-47099290D01*
X53192242Y-47099290D02*
X53287480Y-47146909D01*
X53287480Y-47146909D02*
X53382718Y-47146909D01*
X53382718Y-47146909D02*
X53525575Y-47099290D01*
X53525575Y-47099290D02*
X54097004Y-46527862D01*
X54097004Y-46527862D02*
X54097004Y-47146909D01*
X50397004Y-49327530D02*
X49397004Y-49327530D01*
X49397004Y-49327530D02*
X49397004Y-49565625D01*
X49397004Y-49565625D02*
X49444623Y-49708482D01*
X49444623Y-49708482D02*
X49539861Y-49803720D01*
X49539861Y-49803720D02*
X49635099Y-49851339D01*
X49635099Y-49851339D02*
X49825575Y-49898958D01*
X49825575Y-49898958D02*
X49968432Y-49898958D01*
X49968432Y-49898958D02*
X50158908Y-49851339D01*
X50158908Y-49851339D02*
X50254146Y-49803720D01*
X50254146Y-49803720D02*
X50349385Y-49708482D01*
X50349385Y-49708482D02*
X50397004Y-49565625D01*
X50397004Y-49565625D02*
X50397004Y-49327530D01*
X49825575Y-50470387D02*
X49777956Y-50375149D01*
X49777956Y-50375149D02*
X49730337Y-50327530D01*
X49730337Y-50327530D02*
X49635099Y-50279911D01*
X49635099Y-50279911D02*
X49587480Y-50279911D01*
X49587480Y-50279911D02*
X49492242Y-50327530D01*
X49492242Y-50327530D02*
X49444623Y-50375149D01*
X49444623Y-50375149D02*
X49397004Y-50470387D01*
X49397004Y-50470387D02*
X49397004Y-50660863D01*
X49397004Y-50660863D02*
X49444623Y-50756101D01*
X49444623Y-50756101D02*
X49492242Y-50803720D01*
X49492242Y-50803720D02*
X49587480Y-50851339D01*
X49587480Y-50851339D02*
X49635099Y-50851339D01*
X49635099Y-50851339D02*
X49730337Y-50803720D01*
X49730337Y-50803720D02*
X49777956Y-50756101D01*
X49777956Y-50756101D02*
X49825575Y-50660863D01*
X49825575Y-50660863D02*
X49825575Y-50470387D01*
X49825575Y-50470387D02*
X49873194Y-50375149D01*
X49873194Y-50375149D02*
X49920813Y-50327530D01*
X49920813Y-50327530D02*
X50016051Y-50279911D01*
X50016051Y-50279911D02*
X50206527Y-50279911D01*
X50206527Y-50279911D02*
X50301765Y-50327530D01*
X50301765Y-50327530D02*
X50349385Y-50375149D01*
X50349385Y-50375149D02*
X50397004Y-50470387D01*
X50397004Y-50470387D02*
X50397004Y-50660863D01*
X50397004Y-50660863D02*
X50349385Y-50756101D01*
X50349385Y-50756101D02*
X50301765Y-50803720D01*
X50301765Y-50803720D02*
X50206527Y-50851339D01*
X50206527Y-50851339D02*
X50016051Y-50851339D01*
X50016051Y-50851339D02*
X49920813Y-50803720D01*
X49920813Y-50803720D02*
X49873194Y-50756101D01*
X49873194Y-50756101D02*
X49825575Y-50660863D01*
X22481400Y-45160380D02*
X21481400Y-45160380D01*
X21481400Y-45160380D02*
X21481400Y-45398475D01*
X21481400Y-45398475D02*
X21529019Y-45541332D01*
X21529019Y-45541332D02*
X21624257Y-45636570D01*
X21624257Y-45636570D02*
X21719495Y-45684189D01*
X21719495Y-45684189D02*
X21909971Y-45731808D01*
X21909971Y-45731808D02*
X22052828Y-45731808D01*
X22052828Y-45731808D02*
X22243304Y-45684189D01*
X22243304Y-45684189D02*
X22338542Y-45636570D01*
X22338542Y-45636570D02*
X22433781Y-45541332D01*
X22433781Y-45541332D02*
X22481400Y-45398475D01*
X22481400Y-45398475D02*
X22481400Y-45160380D01*
X21481400Y-46065142D02*
X21481400Y-46731808D01*
X21481400Y-46731808D02*
X22481400Y-46303237D01*
X53634354Y-74804819D02*
X53634354Y-73804819D01*
X53634354Y-73804819D02*
X53396259Y-73804819D01*
X53396259Y-73804819D02*
X53253402Y-73852438D01*
X53253402Y-73852438D02*
X53158164Y-73947676D01*
X53158164Y-73947676D02*
X53110545Y-74042914D01*
X53110545Y-74042914D02*
X53062926Y-74233390D01*
X53062926Y-74233390D02*
X53062926Y-74376247D01*
X53062926Y-74376247D02*
X53110545Y-74566723D01*
X53110545Y-74566723D02*
X53158164Y-74661961D01*
X53158164Y-74661961D02*
X53253402Y-74757200D01*
X53253402Y-74757200D02*
X53396259Y-74804819D01*
X53396259Y-74804819D02*
X53634354Y-74804819D01*
X52158164Y-73804819D02*
X52634354Y-73804819D01*
X52634354Y-73804819D02*
X52681973Y-74281009D01*
X52681973Y-74281009D02*
X52634354Y-74233390D01*
X52634354Y-74233390D02*
X52539116Y-74185771D01*
X52539116Y-74185771D02*
X52301021Y-74185771D01*
X52301021Y-74185771D02*
X52205783Y-74233390D01*
X52205783Y-74233390D02*
X52158164Y-74281009D01*
X52158164Y-74281009D02*
X52110545Y-74376247D01*
X52110545Y-74376247D02*
X52110545Y-74614342D01*
X52110545Y-74614342D02*
X52158164Y-74709580D01*
X52158164Y-74709580D02*
X52205783Y-74757200D01*
X52205783Y-74757200D02*
X52301021Y-74804819D01*
X52301021Y-74804819D02*
X52539116Y-74804819D01*
X52539116Y-74804819D02*
X52634354Y-74757200D01*
X52634354Y-74757200D02*
X52681973Y-74709580D01*
X57073569Y-44671739D02*
X56073569Y-44671739D01*
X56073569Y-44671739D02*
X56073569Y-44909834D01*
X56073569Y-44909834D02*
X56121188Y-45052691D01*
X56121188Y-45052691D02*
X56216426Y-45147929D01*
X56216426Y-45147929D02*
X56311664Y-45195548D01*
X56311664Y-45195548D02*
X56502140Y-45243167D01*
X56502140Y-45243167D02*
X56644997Y-45243167D01*
X56644997Y-45243167D02*
X56835473Y-45195548D01*
X56835473Y-45195548D02*
X56930711Y-45147929D01*
X56930711Y-45147929D02*
X57025950Y-45052691D01*
X57025950Y-45052691D02*
X57073569Y-44909834D01*
X57073569Y-44909834D02*
X57073569Y-44671739D01*
X57073569Y-46195548D02*
X57073569Y-45624120D01*
X57073569Y-45909834D02*
X56073569Y-45909834D01*
X56073569Y-45909834D02*
X56216426Y-45814596D01*
X56216426Y-45814596D02*
X56311664Y-45719358D01*
X56311664Y-45719358D02*
X56359283Y-45624120D01*
X56073569Y-46528882D02*
X56073569Y-47147929D01*
X56073569Y-47147929D02*
X56454521Y-46814596D01*
X56454521Y-46814596D02*
X56454521Y-46957453D01*
X56454521Y-46957453D02*
X56502140Y-47052691D01*
X56502140Y-47052691D02*
X56549759Y-47100310D01*
X56549759Y-47100310D02*
X56644997Y-47147929D01*
X56644997Y-47147929D02*
X56883092Y-47147929D01*
X56883092Y-47147929D02*
X56978330Y-47100310D01*
X56978330Y-47100310D02*
X57025950Y-47052691D01*
X57025950Y-47052691D02*
X57073569Y-46957453D01*
X57073569Y-46957453D02*
X57073569Y-46671739D01*
X57073569Y-46671739D02*
X57025950Y-46576501D01*
X57025950Y-46576501D02*
X56978330Y-46528882D01*
X60050134Y-44660939D02*
X59050134Y-44660939D01*
X59050134Y-44660939D02*
X59050134Y-44899034D01*
X59050134Y-44899034D02*
X59097753Y-45041891D01*
X59097753Y-45041891D02*
X59192991Y-45137129D01*
X59192991Y-45137129D02*
X59288229Y-45184748D01*
X59288229Y-45184748D02*
X59478705Y-45232367D01*
X59478705Y-45232367D02*
X59621562Y-45232367D01*
X59621562Y-45232367D02*
X59812038Y-45184748D01*
X59812038Y-45184748D02*
X59907276Y-45137129D01*
X59907276Y-45137129D02*
X60002515Y-45041891D01*
X60002515Y-45041891D02*
X60050134Y-44899034D01*
X60050134Y-44899034D02*
X60050134Y-44660939D01*
X60050134Y-46184748D02*
X60050134Y-45613320D01*
X60050134Y-45899034D02*
X59050134Y-45899034D01*
X59050134Y-45899034D02*
X59192991Y-45803796D01*
X59192991Y-45803796D02*
X59288229Y-45708558D01*
X59288229Y-45708558D02*
X59335848Y-45613320D01*
X59383467Y-47041891D02*
X60050134Y-47041891D01*
X59002515Y-46803796D02*
X59716800Y-46565701D01*
X59716800Y-46565701D02*
X59716800Y-47184748D01*
X28908207Y-40936103D02*
X28908207Y-40269436D01*
X28908207Y-40459912D02*
X28860588Y-40364674D01*
X28860588Y-40364674D02*
X28812969Y-40317055D01*
X28812969Y-40317055D02*
X28717731Y-40269436D01*
X28717731Y-40269436D02*
X28622493Y-40269436D01*
X28146302Y-40936103D02*
X28241540Y-40888484D01*
X28241540Y-40888484D02*
X28289159Y-40840864D01*
X28289159Y-40840864D02*
X28336778Y-40745626D01*
X28336778Y-40745626D02*
X28336778Y-40459912D01*
X28336778Y-40459912D02*
X28289159Y-40364674D01*
X28289159Y-40364674D02*
X28241540Y-40317055D01*
X28241540Y-40317055D02*
X28146302Y-40269436D01*
X28146302Y-40269436D02*
X28003445Y-40269436D01*
X28003445Y-40269436D02*
X27908207Y-40317055D01*
X27908207Y-40317055D02*
X27860588Y-40364674D01*
X27860588Y-40364674D02*
X27812969Y-40459912D01*
X27812969Y-40459912D02*
X27812969Y-40745626D01*
X27812969Y-40745626D02*
X27860588Y-40840864D01*
X27860588Y-40840864D02*
X27908207Y-40888484D01*
X27908207Y-40888484D02*
X28003445Y-40936103D01*
X28003445Y-40936103D02*
X28146302Y-40936103D01*
X27479635Y-40269436D02*
X27289159Y-40936103D01*
X27289159Y-40936103D02*
X27098683Y-40459912D01*
X27098683Y-40459912D02*
X26908207Y-40936103D01*
X26908207Y-40936103D02*
X26717731Y-40269436D01*
X26384397Y-40031341D02*
X26336778Y-39983722D01*
X26336778Y-39983722D02*
X26241540Y-39936103D01*
X26241540Y-39936103D02*
X26003445Y-39936103D01*
X26003445Y-39936103D02*
X25908207Y-39983722D01*
X25908207Y-39983722D02*
X25860588Y-40031341D01*
X25860588Y-40031341D02*
X25812969Y-40126579D01*
X25812969Y-40126579D02*
X25812969Y-40221817D01*
X25812969Y-40221817D02*
X25860588Y-40364674D01*
X25860588Y-40364674D02*
X26432016Y-40936103D01*
X26432016Y-40936103D02*
X25812969Y-40936103D01*
X56292605Y-40936069D02*
X56292605Y-40269402D01*
X56292605Y-40459878D02*
X56244986Y-40364640D01*
X56244986Y-40364640D02*
X56197367Y-40317021D01*
X56197367Y-40317021D02*
X56102129Y-40269402D01*
X56102129Y-40269402D02*
X56006891Y-40269402D01*
X55530700Y-40936069D02*
X55625938Y-40888450D01*
X55625938Y-40888450D02*
X55673557Y-40840830D01*
X55673557Y-40840830D02*
X55721176Y-40745592D01*
X55721176Y-40745592D02*
X55721176Y-40459878D01*
X55721176Y-40459878D02*
X55673557Y-40364640D01*
X55673557Y-40364640D02*
X55625938Y-40317021D01*
X55625938Y-40317021D02*
X55530700Y-40269402D01*
X55530700Y-40269402D02*
X55387843Y-40269402D01*
X55387843Y-40269402D02*
X55292605Y-40317021D01*
X55292605Y-40317021D02*
X55244986Y-40364640D01*
X55244986Y-40364640D02*
X55197367Y-40459878D01*
X55197367Y-40459878D02*
X55197367Y-40745592D01*
X55197367Y-40745592D02*
X55244986Y-40840830D01*
X55244986Y-40840830D02*
X55292605Y-40888450D01*
X55292605Y-40888450D02*
X55387843Y-40936069D01*
X55387843Y-40936069D02*
X55530700Y-40936069D01*
X54864033Y-40269402D02*
X54673557Y-40936069D01*
X54673557Y-40936069D02*
X54483081Y-40459878D01*
X54483081Y-40459878D02*
X54292605Y-40936069D01*
X54292605Y-40936069D02*
X54102129Y-40269402D01*
X53816414Y-39936069D02*
X53197367Y-39936069D01*
X53197367Y-39936069D02*
X53530700Y-40317021D01*
X53530700Y-40317021D02*
X53387843Y-40317021D01*
X53387843Y-40317021D02*
X53292605Y-40364640D01*
X53292605Y-40364640D02*
X53244986Y-40412259D01*
X53244986Y-40412259D02*
X53197367Y-40507497D01*
X53197367Y-40507497D02*
X53197367Y-40745592D01*
X53197367Y-40745592D02*
X53244986Y-40840830D01*
X53244986Y-40840830D02*
X53292605Y-40888450D01*
X53292605Y-40888450D02*
X53387843Y-40936069D01*
X53387843Y-40936069D02*
X53673557Y-40936069D01*
X53673557Y-40936069D02*
X53768795Y-40888450D01*
X53768795Y-40888450D02*
X53816414Y-40840830D01*
X63026699Y-44670719D02*
X62026699Y-44670719D01*
X62026699Y-44670719D02*
X62026699Y-44908814D01*
X62026699Y-44908814D02*
X62074318Y-45051671D01*
X62074318Y-45051671D02*
X62169556Y-45146909D01*
X62169556Y-45146909D02*
X62264794Y-45194528D01*
X62264794Y-45194528D02*
X62455270Y-45242147D01*
X62455270Y-45242147D02*
X62598127Y-45242147D01*
X62598127Y-45242147D02*
X62788603Y-45194528D01*
X62788603Y-45194528D02*
X62883841Y-45146909D01*
X62883841Y-45146909D02*
X62979080Y-45051671D01*
X62979080Y-45051671D02*
X63026699Y-44908814D01*
X63026699Y-44908814D02*
X63026699Y-44670719D01*
X63026699Y-46194528D02*
X63026699Y-45623100D01*
X63026699Y-45908814D02*
X62026699Y-45908814D01*
X62026699Y-45908814D02*
X62169556Y-45813576D01*
X62169556Y-45813576D02*
X62264794Y-45718338D01*
X62264794Y-45718338D02*
X62312413Y-45623100D01*
X62026699Y-47099290D02*
X62026699Y-46623100D01*
X62026699Y-46623100D02*
X62502889Y-46575481D01*
X62502889Y-46575481D02*
X62455270Y-46623100D01*
X62455270Y-46623100D02*
X62407651Y-46718338D01*
X62407651Y-46718338D02*
X62407651Y-46956433D01*
X62407651Y-46956433D02*
X62455270Y-47051671D01*
X62455270Y-47051671D02*
X62502889Y-47099290D01*
X62502889Y-47099290D02*
X62598127Y-47146909D01*
X62598127Y-47146909D02*
X62836222Y-47146909D01*
X62836222Y-47146909D02*
X62931460Y-47099290D01*
X62931460Y-47099290D02*
X62979080Y-47051671D01*
X62979080Y-47051671D02*
X63026699Y-46956433D01*
X63026699Y-46956433D02*
X63026699Y-46718338D01*
X63026699Y-46718338D02*
X62979080Y-46623100D01*
X62979080Y-46623100D02*
X62931460Y-46575481D01*
X53373569Y-49327530D02*
X52373569Y-49327530D01*
X52373569Y-49327530D02*
X52373569Y-49565625D01*
X52373569Y-49565625D02*
X52421188Y-49708482D01*
X52421188Y-49708482D02*
X52516426Y-49803720D01*
X52516426Y-49803720D02*
X52611664Y-49851339D01*
X52611664Y-49851339D02*
X52802140Y-49898958D01*
X52802140Y-49898958D02*
X52944997Y-49898958D01*
X52944997Y-49898958D02*
X53135473Y-49851339D01*
X53135473Y-49851339D02*
X53230711Y-49803720D01*
X53230711Y-49803720D02*
X53325950Y-49708482D01*
X53325950Y-49708482D02*
X53373569Y-49565625D01*
X53373569Y-49565625D02*
X53373569Y-49327530D01*
X53373569Y-50375149D02*
X53373569Y-50565625D01*
X53373569Y-50565625D02*
X53325950Y-50660863D01*
X53325950Y-50660863D02*
X53278330Y-50708482D01*
X53278330Y-50708482D02*
X53135473Y-50803720D01*
X53135473Y-50803720D02*
X52944997Y-50851339D01*
X52944997Y-50851339D02*
X52564045Y-50851339D01*
X52564045Y-50851339D02*
X52468807Y-50803720D01*
X52468807Y-50803720D02*
X52421188Y-50756101D01*
X52421188Y-50756101D02*
X52373569Y-50660863D01*
X52373569Y-50660863D02*
X52373569Y-50470387D01*
X52373569Y-50470387D02*
X52421188Y-50375149D01*
X52421188Y-50375149D02*
X52468807Y-50327530D01*
X52468807Y-50327530D02*
X52564045Y-50279911D01*
X52564045Y-50279911D02*
X52802140Y-50279911D01*
X52802140Y-50279911D02*
X52897378Y-50327530D01*
X52897378Y-50327530D02*
X52944997Y-50375149D01*
X52944997Y-50375149D02*
X52992616Y-50470387D01*
X52992616Y-50470387D02*
X52992616Y-50660863D01*
X52992616Y-50660863D02*
X52944997Y-50756101D01*
X52944997Y-50756101D02*
X52897378Y-50803720D01*
X52897378Y-50803720D02*
X52802140Y-50851339D01*
X38215604Y-74804819D02*
X38215604Y-73804819D01*
X38215604Y-73804819D02*
X37977509Y-73804819D01*
X37977509Y-73804819D02*
X37834652Y-73852438D01*
X37834652Y-73852438D02*
X37739414Y-73947676D01*
X37739414Y-73947676D02*
X37691795Y-74042914D01*
X37691795Y-74042914D02*
X37644176Y-74233390D01*
X37644176Y-74233390D02*
X37644176Y-74376247D01*
X37644176Y-74376247D02*
X37691795Y-74566723D01*
X37691795Y-74566723D02*
X37739414Y-74661961D01*
X37739414Y-74661961D02*
X37834652Y-74757200D01*
X37834652Y-74757200D02*
X37977509Y-74804819D01*
X37977509Y-74804819D02*
X38215604Y-74804819D01*
X36787033Y-74138152D02*
X36787033Y-74804819D01*
X37025128Y-73757200D02*
X37263223Y-74471485D01*
X37263223Y-74471485D02*
X36644176Y-74471485D01*
X41728104Y-59454819D02*
X41728104Y-58454819D01*
X41728104Y-58454819D02*
X41490009Y-58454819D01*
X41490009Y-58454819D02*
X41347152Y-58502438D01*
X41347152Y-58502438D02*
X41251914Y-58597676D01*
X41251914Y-58597676D02*
X41204295Y-58692914D01*
X41204295Y-58692914D02*
X41156676Y-58883390D01*
X41156676Y-58883390D02*
X41156676Y-59026247D01*
X41156676Y-59026247D02*
X41204295Y-59216723D01*
X41204295Y-59216723D02*
X41251914Y-59311961D01*
X41251914Y-59311961D02*
X41347152Y-59407200D01*
X41347152Y-59407200D02*
X41490009Y-59454819D01*
X41490009Y-59454819D02*
X41728104Y-59454819D01*
X40204295Y-59454819D02*
X40775723Y-59454819D01*
X40490009Y-59454819D02*
X40490009Y-58454819D01*
X40490009Y-58454819D02*
X40585247Y-58597676D01*
X40585247Y-58597676D02*
X40680485Y-58692914D01*
X40680485Y-58692914D02*
X40775723Y-58740533D01*
X24419593Y-99704194D02*
X24419593Y-100418479D01*
X24419593Y-100418479D02*
X24467212Y-100561336D01*
X24467212Y-100561336D02*
X24562450Y-100656575D01*
X24562450Y-100656575D02*
X24705307Y-100704194D01*
X24705307Y-100704194D02*
X24800545Y-100704194D01*
X23419593Y-100704194D02*
X23991021Y-100704194D01*
X23705307Y-100704194D02*
X23705307Y-99704194D01*
X23705307Y-99704194D02*
X23800545Y-99847051D01*
X23800545Y-99847051D02*
X23895783Y-99942289D01*
X23895783Y-99942289D02*
X23991021Y-99989908D01*
X34584354Y-55754819D02*
X34584354Y-54754819D01*
X34584354Y-54754819D02*
X34346259Y-54754819D01*
X34346259Y-54754819D02*
X34203402Y-54802438D01*
X34203402Y-54802438D02*
X34108164Y-54897676D01*
X34108164Y-54897676D02*
X34060545Y-54992914D01*
X34060545Y-54992914D02*
X34012926Y-55183390D01*
X34012926Y-55183390D02*
X34012926Y-55326247D01*
X34012926Y-55326247D02*
X34060545Y-55516723D01*
X34060545Y-55516723D02*
X34108164Y-55611961D01*
X34108164Y-55611961D02*
X34203402Y-55707200D01*
X34203402Y-55707200D02*
X34346259Y-55754819D01*
X34346259Y-55754819D02*
X34584354Y-55754819D01*
X33631973Y-54850057D02*
X33584354Y-54802438D01*
X33584354Y-54802438D02*
X33489116Y-54754819D01*
X33489116Y-54754819D02*
X33251021Y-54754819D01*
X33251021Y-54754819D02*
X33155783Y-54802438D01*
X33155783Y-54802438D02*
X33108164Y-54850057D01*
X33108164Y-54850057D02*
X33060545Y-54945295D01*
X33060545Y-54945295D02*
X33060545Y-55040533D01*
X33060545Y-55040533D02*
X33108164Y-55183390D01*
X33108164Y-55183390D02*
X33679592Y-55754819D01*
X33679592Y-55754819D02*
X33060545Y-55754819D01*
X24741016Y-40936103D02*
X24741016Y-40269436D01*
X24741016Y-40459912D02*
X24693397Y-40364674D01*
X24693397Y-40364674D02*
X24645778Y-40317055D01*
X24645778Y-40317055D02*
X24550540Y-40269436D01*
X24550540Y-40269436D02*
X24455302Y-40269436D01*
X23979111Y-40936103D02*
X24074349Y-40888484D01*
X24074349Y-40888484D02*
X24121968Y-40840864D01*
X24121968Y-40840864D02*
X24169587Y-40745626D01*
X24169587Y-40745626D02*
X24169587Y-40459912D01*
X24169587Y-40459912D02*
X24121968Y-40364674D01*
X24121968Y-40364674D02*
X24074349Y-40317055D01*
X24074349Y-40317055D02*
X23979111Y-40269436D01*
X23979111Y-40269436D02*
X23836254Y-40269436D01*
X23836254Y-40269436D02*
X23741016Y-40317055D01*
X23741016Y-40317055D02*
X23693397Y-40364674D01*
X23693397Y-40364674D02*
X23645778Y-40459912D01*
X23645778Y-40459912D02*
X23645778Y-40745626D01*
X23645778Y-40745626D02*
X23693397Y-40840864D01*
X23693397Y-40840864D02*
X23741016Y-40888484D01*
X23741016Y-40888484D02*
X23836254Y-40936103D01*
X23836254Y-40936103D02*
X23979111Y-40936103D01*
X23312444Y-40269436D02*
X23121968Y-40936103D01*
X23121968Y-40936103D02*
X22931492Y-40459912D01*
X22931492Y-40459912D02*
X22741016Y-40936103D01*
X22741016Y-40936103D02*
X22550540Y-40269436D01*
X21645778Y-40936103D02*
X22217206Y-40936103D01*
X21931492Y-40936103D02*
X21931492Y-39936103D01*
X21931492Y-39936103D02*
X22026730Y-40078960D01*
X22026730Y-40078960D02*
X22121968Y-40174198D01*
X22121968Y-40174198D02*
X22217206Y-40221817D01*
X60778104Y-78504819D02*
X60778104Y-77504819D01*
X60778104Y-77504819D02*
X60540009Y-77504819D01*
X60540009Y-77504819D02*
X60397152Y-77552438D01*
X60397152Y-77552438D02*
X60301914Y-77647676D01*
X60301914Y-77647676D02*
X60254295Y-77742914D01*
X60254295Y-77742914D02*
X60206676Y-77933390D01*
X60206676Y-77933390D02*
X60206676Y-78076247D01*
X60206676Y-78076247D02*
X60254295Y-78266723D01*
X60254295Y-78266723D02*
X60301914Y-78361961D01*
X60301914Y-78361961D02*
X60397152Y-78457200D01*
X60397152Y-78457200D02*
X60540009Y-78504819D01*
X60540009Y-78504819D02*
X60778104Y-78504819D01*
X59873342Y-77504819D02*
X59254295Y-77504819D01*
X59254295Y-77504819D02*
X59587628Y-77885771D01*
X59587628Y-77885771D02*
X59444771Y-77885771D01*
X59444771Y-77885771D02*
X59349533Y-77933390D01*
X59349533Y-77933390D02*
X59301914Y-77981009D01*
X59301914Y-77981009D02*
X59254295Y-78076247D01*
X59254295Y-78076247D02*
X59254295Y-78314342D01*
X59254295Y-78314342D02*
X59301914Y-78409580D01*
X59301914Y-78409580D02*
X59349533Y-78457200D01*
X59349533Y-78457200D02*
X59444771Y-78504819D01*
X59444771Y-78504819D02*
X59730485Y-78504819D01*
X59730485Y-78504819D02*
X59825723Y-78457200D01*
X59825723Y-78457200D02*
X59873342Y-78409580D01*
X56350134Y-48837910D02*
X55350134Y-48837910D01*
X55350134Y-48837910D02*
X55350134Y-49076005D01*
X55350134Y-49076005D02*
X55397753Y-49218862D01*
X55397753Y-49218862D02*
X55492991Y-49314100D01*
X55492991Y-49314100D02*
X55588229Y-49361719D01*
X55588229Y-49361719D02*
X55778705Y-49409338D01*
X55778705Y-49409338D02*
X55921562Y-49409338D01*
X55921562Y-49409338D02*
X56112038Y-49361719D01*
X56112038Y-49361719D02*
X56207276Y-49314100D01*
X56207276Y-49314100D02*
X56302515Y-49218862D01*
X56302515Y-49218862D02*
X56350134Y-49076005D01*
X56350134Y-49076005D02*
X56350134Y-48837910D01*
X56350134Y-50361719D02*
X56350134Y-49790291D01*
X56350134Y-50076005D02*
X55350134Y-50076005D01*
X55350134Y-50076005D02*
X55492991Y-49980767D01*
X55492991Y-49980767D02*
X55588229Y-49885529D01*
X55588229Y-49885529D02*
X55635848Y-49790291D01*
X55350134Y-50980767D02*
X55350134Y-51076005D01*
X55350134Y-51076005D02*
X55397753Y-51171243D01*
X55397753Y-51171243D02*
X55445372Y-51218862D01*
X55445372Y-51218862D02*
X55540610Y-51266481D01*
X55540610Y-51266481D02*
X55731086Y-51314100D01*
X55731086Y-51314100D02*
X55969181Y-51314100D01*
X55969181Y-51314100D02*
X56159657Y-51266481D01*
X56159657Y-51266481D02*
X56254895Y-51218862D01*
X56254895Y-51218862D02*
X56302515Y-51171243D01*
X56302515Y-51171243D02*
X56350134Y-51076005D01*
X56350134Y-51076005D02*
X56350134Y-50980767D01*
X56350134Y-50980767D02*
X56302515Y-50885529D01*
X56302515Y-50885529D02*
X56254895Y-50837910D01*
X56254895Y-50837910D02*
X56159657Y-50790291D01*
X56159657Y-50790291D02*
X55969181Y-50742672D01*
X55969181Y-50742672D02*
X55731086Y-50742672D01*
X55731086Y-50742672D02*
X55540610Y-50790291D01*
X55540610Y-50790291D02*
X55445372Y-50837910D01*
X55445372Y-50837910D02*
X55397753Y-50885529D01*
X55397753Y-50885529D02*
X55350134Y-50980767D01*
X29029843Y-44714989D02*
X28029843Y-44714989D01*
X28029843Y-44714989D02*
X28029843Y-44953084D01*
X28029843Y-44953084D02*
X28077462Y-45095941D01*
X28077462Y-45095941D02*
X28172700Y-45191179D01*
X28172700Y-45191179D02*
X28267938Y-45238798D01*
X28267938Y-45238798D02*
X28458414Y-45286417D01*
X28458414Y-45286417D02*
X28601271Y-45286417D01*
X28601271Y-45286417D02*
X28791747Y-45238798D01*
X28791747Y-45238798D02*
X28886985Y-45191179D01*
X28886985Y-45191179D02*
X28982224Y-45095941D01*
X28982224Y-45095941D02*
X29029843Y-44953084D01*
X29029843Y-44953084D02*
X29029843Y-44714989D01*
X29029843Y-46238798D02*
X29029843Y-45667370D01*
X29029843Y-45953084D02*
X28029843Y-45953084D01*
X28029843Y-45953084D02*
X28172700Y-45857846D01*
X28172700Y-45857846D02*
X28267938Y-45762608D01*
X28267938Y-45762608D02*
X28315557Y-45667370D01*
X28029843Y-47095941D02*
X28029843Y-46905465D01*
X28029843Y-46905465D02*
X28077462Y-46810227D01*
X28077462Y-46810227D02*
X28125081Y-46762608D01*
X28125081Y-46762608D02*
X28267938Y-46667370D01*
X28267938Y-46667370D02*
X28458414Y-46619751D01*
X28458414Y-46619751D02*
X28839366Y-46619751D01*
X28839366Y-46619751D02*
X28934604Y-46667370D01*
X28934604Y-46667370D02*
X28982224Y-46714989D01*
X28982224Y-46714989D02*
X29029843Y-46810227D01*
X29029843Y-46810227D02*
X29029843Y-47000703D01*
X29029843Y-47000703D02*
X28982224Y-47095941D01*
X28982224Y-47095941D02*
X28934604Y-47143560D01*
X28934604Y-47143560D02*
X28839366Y-47191179D01*
X28839366Y-47191179D02*
X28601271Y-47191179D01*
X28601271Y-47191179D02*
X28506033Y-47143560D01*
X28506033Y-47143560D02*
X28458414Y-47095941D01*
X28458414Y-47095941D02*
X28410795Y-47000703D01*
X28410795Y-47000703D02*
X28410795Y-46810227D01*
X28410795Y-46810227D02*
X28458414Y-46714989D01*
X28458414Y-46714989D02*
X28506033Y-46667370D01*
X28506033Y-46667370D02*
X28601271Y-46619751D01*
X78196839Y-91482104D02*
X77720649Y-91482104D01*
X78292077Y-91767819D02*
X77958744Y-90767819D01*
X77958744Y-90767819D02*
X77625411Y-91767819D01*
X76768268Y-91767819D02*
X77339696Y-91767819D01*
X77053982Y-91767819D02*
X77053982Y-90767819D01*
X77053982Y-90767819D02*
X77149220Y-90910676D01*
X77149220Y-90910676D02*
X77244458Y-91005914D01*
X77244458Y-91005914D02*
X77339696Y-91053533D01*
X57256378Y-101229819D02*
X56637331Y-101229819D01*
X56637331Y-101229819D02*
X56970664Y-101610771D01*
X56970664Y-101610771D02*
X56827807Y-101610771D01*
X56827807Y-101610771D02*
X56732569Y-101658390D01*
X56732569Y-101658390D02*
X56684950Y-101706009D01*
X56684950Y-101706009D02*
X56637331Y-101801247D01*
X56637331Y-101801247D02*
X56637331Y-102039342D01*
X56637331Y-102039342D02*
X56684950Y-102134580D01*
X56684950Y-102134580D02*
X56732569Y-102182200D01*
X56732569Y-102182200D02*
X56827807Y-102229819D01*
X56827807Y-102229819D02*
X57113521Y-102229819D01*
X57113521Y-102229819D02*
X57208759Y-102182200D01*
X57208759Y-102182200D02*
X57256378Y-102134580D01*
X56161140Y-102182200D02*
X56161140Y-102229819D01*
X56161140Y-102229819D02*
X56208759Y-102325057D01*
X56208759Y-102325057D02*
X56256378Y-102372676D01*
X55256379Y-101229819D02*
X55732569Y-101229819D01*
X55732569Y-101229819D02*
X55780188Y-101706009D01*
X55780188Y-101706009D02*
X55732569Y-101658390D01*
X55732569Y-101658390D02*
X55637331Y-101610771D01*
X55637331Y-101610771D02*
X55399236Y-101610771D01*
X55399236Y-101610771D02*
X55303998Y-101658390D01*
X55303998Y-101658390D02*
X55256379Y-101706009D01*
X55256379Y-101706009D02*
X55208760Y-101801247D01*
X55208760Y-101801247D02*
X55208760Y-102039342D01*
X55208760Y-102039342D02*
X55256379Y-102134580D01*
X55256379Y-102134580D02*
X55303998Y-102182200D01*
X55303998Y-102182200D02*
X55399236Y-102229819D01*
X55399236Y-102229819D02*
X55637331Y-102229819D01*
X55637331Y-102229819D02*
X55732569Y-102182200D01*
X55732569Y-102182200D02*
X55780188Y-102134580D01*
X38207628Y-44079819D02*
X37588581Y-44079819D01*
X37588581Y-44079819D02*
X37921914Y-44460771D01*
X37921914Y-44460771D02*
X37779057Y-44460771D01*
X37779057Y-44460771D02*
X37683819Y-44508390D01*
X37683819Y-44508390D02*
X37636200Y-44556009D01*
X37636200Y-44556009D02*
X37588581Y-44651247D01*
X37588581Y-44651247D02*
X37588581Y-44889342D01*
X37588581Y-44889342D02*
X37636200Y-44984580D01*
X37636200Y-44984580D02*
X37683819Y-45032200D01*
X37683819Y-45032200D02*
X37779057Y-45079819D01*
X37779057Y-45079819D02*
X38064771Y-45079819D01*
X38064771Y-45079819D02*
X38160009Y-45032200D01*
X38160009Y-45032200D02*
X38207628Y-44984580D01*
X37112390Y-45032200D02*
X37112390Y-45079819D01*
X37112390Y-45079819D02*
X37160009Y-45175057D01*
X37160009Y-45175057D02*
X37207628Y-45222676D01*
X36493343Y-44079819D02*
X36398105Y-44079819D01*
X36398105Y-44079819D02*
X36302867Y-44127438D01*
X36302867Y-44127438D02*
X36255248Y-44175057D01*
X36255248Y-44175057D02*
X36207629Y-44270295D01*
X36207629Y-44270295D02*
X36160010Y-44460771D01*
X36160010Y-44460771D02*
X36160010Y-44698866D01*
X36160010Y-44698866D02*
X36207629Y-44889342D01*
X36207629Y-44889342D02*
X36255248Y-44984580D01*
X36255248Y-44984580D02*
X36302867Y-45032200D01*
X36302867Y-45032200D02*
X36398105Y-45079819D01*
X36398105Y-45079819D02*
X36493343Y-45079819D01*
X36493343Y-45079819D02*
X36588581Y-45032200D01*
X36588581Y-45032200D02*
X36636200Y-44984580D01*
X36636200Y-44984580D02*
X36683819Y-44889342D01*
X36683819Y-44889342D02*
X36731438Y-44698866D01*
X36731438Y-44698866D02*
X36731438Y-44460771D01*
X36731438Y-44460771D02*
X36683819Y-44270295D01*
X36683819Y-44270295D02*
X36636200Y-44175057D01*
X36636200Y-44175057D02*
X36588581Y-44127438D01*
X36588581Y-44127438D02*
X36493343Y-44079819D01*
D12*
%TO.C,TP5*%
X49765666Y-41390026D02*
X47865666Y-41390026D01*
X47865666Y-41390026D02*
X47865666Y-43290026D01*
X49765666Y-43290026D02*
X49765666Y-41390026D01*
X47865666Y-43290026D02*
X49765666Y-43290026D01*
%TO.C,TP3*%
X55718750Y-52674074D02*
X53818750Y-52674074D01*
X53818750Y-52674074D02*
X53818750Y-54574074D01*
X55718750Y-54574074D02*
X55718750Y-52674074D01*
X53818750Y-54574074D02*
X55718750Y-54574074D01*
%TO.C,D11*%
X49665666Y-47908475D02*
X49665666Y-44648475D01*
X49665666Y-47908475D02*
X47965666Y-47908475D01*
X47965666Y-47908475D02*
X47965666Y-44648475D01*
%TO.C,TP2*%
X52742185Y-52674074D02*
X50842185Y-52674074D01*
X50842185Y-52674074D02*
X50842185Y-54574074D01*
X52742185Y-54574074D02*
X52742185Y-52674074D01*
X50842185Y-54574074D02*
X52742185Y-54574074D01*
%TO.C,D6*%
X54517510Y-96100000D02*
X57777510Y-96100000D01*
X54517510Y-96100000D02*
X54517510Y-94400000D01*
X54517510Y-94400000D02*
X57777510Y-94400000D01*
%TO.C,D12*%
X52642185Y-47895005D02*
X52642185Y-44635005D01*
X52642185Y-47895005D02*
X50942185Y-47895005D01*
X50942185Y-47895005D02*
X50942185Y-44635005D01*
%TO.C,D8*%
X52642185Y-48055625D02*
X52642185Y-51315625D01*
X50942185Y-48055625D02*
X52642185Y-48055625D01*
X50942185Y-48055625D02*
X50942185Y-51315625D01*
%TO.C,D7*%
X24662520Y-47908475D02*
X24662520Y-44648475D01*
X24662520Y-47908475D02*
X22962520Y-47908475D01*
X22962520Y-47908475D02*
X22962520Y-44648475D01*
%TO.C,D5*%
X54906260Y-77050000D02*
X51646260Y-77050000D01*
X54906260Y-75350000D02*
X54906260Y-77050000D01*
X54906260Y-75350000D02*
X51646260Y-75350000D01*
%TO.C,TP8*%
X58695315Y-41363127D02*
X56795315Y-41363127D01*
X56795315Y-41363127D02*
X56795315Y-43263127D01*
X58695315Y-43263127D02*
X58695315Y-41363127D01*
X56795315Y-43263127D02*
X58695315Y-43263127D01*
%TO.C,D13*%
X55618750Y-47896025D02*
X55618750Y-44636025D01*
X55618750Y-47896025D02*
X53918750Y-47896025D01*
X53918750Y-47896025D02*
X53918750Y-44636025D01*
%TO.C,D14*%
X58595315Y-47885225D02*
X58595315Y-44625225D01*
X58595315Y-47885225D02*
X56895315Y-47885225D01*
X56895315Y-47885225D02*
X56895315Y-44625225D01*
%TO.C,TP10*%
X27739085Y-41376597D02*
X25839085Y-41376597D01*
X25839085Y-41376597D02*
X25839085Y-43276597D01*
X27739085Y-43276597D02*
X27739085Y-41376597D01*
X25839085Y-43276597D02*
X27739085Y-43276597D01*
%TO.C,TP6*%
X52742185Y-41363127D02*
X50842185Y-41363127D01*
X50842185Y-41363127D02*
X50842185Y-43263127D01*
X52742185Y-43263127D02*
X52742185Y-41363127D01*
X50842185Y-43263127D02*
X52742185Y-43263127D01*
%TO.C,D15*%
X61571880Y-47895005D02*
X61571880Y-44635005D01*
X61571880Y-47895005D02*
X59871880Y-47895005D01*
X59871880Y-47895005D02*
X59871880Y-44635005D01*
%TO.C,TP4*%
X58695315Y-52674074D02*
X56795315Y-52674074D01*
X56795315Y-52674074D02*
X56795315Y-54574074D01*
X58695315Y-54574074D02*
X58695315Y-52674074D01*
X56795315Y-54574074D02*
X58695315Y-54574074D01*
%TO.C,D9*%
X55618750Y-48055625D02*
X55618750Y-51315625D01*
X53918750Y-48055625D02*
X55618750Y-48055625D01*
X53918750Y-48055625D02*
X53918750Y-51315625D01*
%TO.C,D4*%
X39487510Y-77050000D02*
X36227510Y-77050000D01*
X39487510Y-75350000D02*
X39487510Y-77050000D01*
X39487510Y-75350000D02*
X36227510Y-75350000D01*
%TO.C,D1*%
X38980010Y-58000000D02*
X42240010Y-58000000D01*
X38980010Y-58000000D02*
X38980010Y-56300000D01*
X38980010Y-56300000D02*
X42240010Y-56300000D01*
%TO.C,J1*%
X22706260Y-53309375D02*
X25466260Y-53309375D01*
X22706260Y-96599375D02*
X22706260Y-53309375D01*
X22706260Y-96599375D02*
X25466260Y-96599375D01*
X22706260Y-97869375D02*
X22706260Y-99249375D01*
X22706260Y-99249375D02*
X24086260Y-99249375D01*
X25466260Y-96599375D02*
X25466260Y-53309375D01*
%TO.C,D2*%
X35856260Y-58000000D02*
X32596260Y-58000000D01*
X35856260Y-56300000D02*
X35856260Y-58000000D01*
X35856260Y-56300000D02*
X32596260Y-56300000D01*
%TO.C,TP7*%
X55718750Y-41363127D02*
X53818750Y-41363127D01*
X53818750Y-41363127D02*
X53818750Y-43263127D01*
X55718750Y-43263127D02*
X55718750Y-41363127D01*
X53818750Y-43263127D02*
X55718750Y-43263127D01*
%TO.C,TP1*%
X22862520Y-43276597D02*
X24762520Y-43276597D01*
X24762520Y-43276597D02*
X24762520Y-41376597D01*
X22862520Y-41376597D02*
X22862520Y-43276597D01*
X24762520Y-41376597D02*
X22862520Y-41376597D01*
%TO.C,D3*%
X58030010Y-77050000D02*
X61290010Y-77050000D01*
X58030010Y-77050000D02*
X58030010Y-75350000D01*
X58030010Y-75350000D02*
X61290010Y-75350000D01*
%TO.C,D10*%
X58595315Y-48042196D02*
X58595315Y-51302196D01*
X56895315Y-48042196D02*
X58595315Y-48042196D01*
X56895315Y-48042196D02*
X56895315Y-51302196D01*
%TO.C,TP9*%
X61671880Y-41363127D02*
X59771880Y-41363127D01*
X59771880Y-41363127D02*
X59771880Y-43263127D01*
X61671880Y-43263127D02*
X61671880Y-41363127D01*
X59771880Y-43263127D02*
X61671880Y-43263127D01*
%TO.C,D16*%
X27639085Y-47908475D02*
X27639085Y-44648475D01*
X27639085Y-47908475D02*
X25939085Y-47908475D01*
X25939085Y-47908475D02*
X25939085Y-44648475D01*
%TO.C,A1*%
X71228629Y-89903750D02*
X67390690Y-89903750D01*
X72152751Y-89903750D02*
X73790690Y-89903750D01*
X73790690Y-89903750D02*
X80990690Y-89903750D01*
X80990690Y-89903750D02*
X82628629Y-89903750D01*
X87390690Y-89903750D02*
X83552751Y-89903750D01*
X67120690Y-89483687D02*
X67120690Y-89840750D01*
X87660690Y-89483687D02*
X87660690Y-89840750D01*
X69880690Y-88990230D02*
X69880690Y-89903750D01*
X84900690Y-88990230D02*
X84900690Y-89903750D01*
X66780690Y-86943750D02*
X66780690Y-87363750D01*
X67120690Y-86943750D02*
X67120690Y-87363750D01*
X87660690Y-86943750D02*
X87660690Y-87363750D01*
X88000690Y-86943750D02*
X88000690Y-87363750D01*
X66780690Y-84403750D02*
X66780690Y-84823750D01*
X67120690Y-84403750D02*
X67120690Y-84823750D01*
X87660690Y-84403750D02*
X87660690Y-84823750D01*
X88000690Y-84403750D02*
X88000690Y-84823750D01*
X66780690Y-81863750D02*
X66780690Y-82283750D01*
X67120690Y-81863750D02*
X67120690Y-82283750D01*
X87660690Y-81863750D02*
X87660690Y-82283750D01*
X88000690Y-81863750D02*
X88000690Y-82283750D01*
X66780690Y-79323750D02*
X66780690Y-79743750D01*
X67120690Y-79323750D02*
X67120690Y-79743750D01*
X87660690Y-79323750D02*
X87660690Y-79743750D01*
X88000690Y-79323750D02*
X88000690Y-79743750D01*
X66780690Y-76783750D02*
X66780690Y-77203750D01*
X67120690Y-76783750D02*
X67120690Y-77203750D01*
X87660690Y-76783750D02*
X87660690Y-77203750D01*
X88000690Y-76783750D02*
X88000690Y-77203750D01*
X66780690Y-74243750D02*
X66780690Y-74663750D01*
X67120690Y-74243750D02*
X67120690Y-74663750D01*
X87660690Y-74243750D02*
X87660690Y-74663750D01*
X88000690Y-74243750D02*
X88000690Y-74663750D01*
X66780690Y-71703750D02*
X66780690Y-72123750D01*
X67120690Y-71703750D02*
X67120690Y-72123750D01*
X87660690Y-71703750D02*
X87660690Y-72123750D01*
X88000690Y-71703750D02*
X88000690Y-72123750D01*
X66780690Y-69163750D02*
X66780690Y-69583750D01*
X67120690Y-69163750D02*
X67120690Y-69583750D01*
X87660690Y-69163750D02*
X87660690Y-69583750D01*
X88000690Y-69163750D02*
X88000690Y-69583750D01*
X66780690Y-66623750D02*
X66780690Y-67043750D01*
X67120690Y-66623750D02*
X67120690Y-67043750D01*
X87660690Y-66623750D02*
X87660690Y-67043750D01*
X88000690Y-66623750D02*
X88000690Y-67043750D01*
X66780690Y-64083750D02*
X66780690Y-64503750D01*
X67120690Y-64083750D02*
X67120690Y-64503750D01*
X87660690Y-64083750D02*
X87660690Y-64503750D01*
X88000690Y-64083750D02*
X88000690Y-64503750D01*
X66780690Y-61543750D02*
X66780690Y-61963750D01*
X67120690Y-61543750D02*
X67120690Y-61963750D01*
X87660690Y-61543750D02*
X87660690Y-61963750D01*
X88000690Y-61543750D02*
X88000690Y-61963750D01*
X66780690Y-59003750D02*
X66780690Y-59423750D01*
X67120690Y-59003750D02*
X67120690Y-59423750D01*
X87660690Y-59003750D02*
X87660690Y-59423750D01*
X88000690Y-59003750D02*
X88000690Y-59423750D01*
X66780690Y-56463750D02*
X66780690Y-56883750D01*
X67120690Y-56463750D02*
X67120690Y-56883750D01*
X87660690Y-56463750D02*
X87660690Y-56883750D01*
X88000690Y-56463750D02*
X88000690Y-56883750D01*
X66780690Y-53923750D02*
X66780690Y-54343750D01*
X67120690Y-53923750D02*
X67120690Y-54343750D01*
X87660690Y-53923750D02*
X87660690Y-54343750D01*
X88000690Y-53923750D02*
X88000690Y-54343750D01*
X66780690Y-51383750D02*
X66780690Y-51803750D01*
X67120690Y-51383750D02*
X67120690Y-51803750D01*
X87660690Y-51383750D02*
X87660690Y-51803750D01*
X88000690Y-51383750D02*
X88000690Y-51803750D01*
X66780690Y-48843750D02*
X66780690Y-49263750D01*
X67120690Y-48843750D02*
X67120690Y-49263750D01*
X87660690Y-48843750D02*
X87660690Y-49263750D01*
X88000690Y-48843750D02*
X88000690Y-49263750D01*
X66780690Y-46303750D02*
X66780690Y-46723750D01*
X67120690Y-46303750D02*
X67120690Y-46723750D01*
X87660690Y-46303750D02*
X87660690Y-46723750D01*
X88000690Y-46303750D02*
X88000690Y-46723750D01*
X66780690Y-43763750D02*
X66780690Y-44183750D01*
X67120690Y-43763750D02*
X67120690Y-44183750D01*
X87660690Y-43763750D02*
X87660690Y-44183750D01*
X88000690Y-43763750D02*
X88000690Y-44183750D01*
X73786780Y-43203750D02*
X73490690Y-43203750D01*
X78636780Y-43203750D02*
X76144600Y-43203750D01*
X81290690Y-43203750D02*
X80994600Y-43203750D01*
X69880690Y-41990230D02*
X69880690Y-86597270D01*
X84900690Y-41990230D02*
X84900690Y-86597270D01*
X73490690Y-41987750D02*
X73490690Y-43203750D01*
X81290690Y-41987750D02*
X81290690Y-43203750D01*
X66780690Y-41223750D02*
X66780690Y-41643750D01*
X67120690Y-41223750D02*
X67120690Y-41643750D01*
X87660690Y-41223750D02*
X87660690Y-41643750D01*
X88000690Y-41223750D02*
X88000690Y-41643750D01*
X88000690Y-41223750D02*
X88480690Y-41223750D01*
X67120690Y-39103813D02*
X67120690Y-38746750D01*
X87660690Y-39103813D02*
X87660690Y-38746750D01*
X87970366Y-39103750D02*
X88480690Y-39103750D01*
X67390690Y-38683750D02*
X69880690Y-38683750D01*
X69880690Y-38683750D02*
X69880690Y-39597270D01*
X71228629Y-38683750D02*
X69880690Y-38683750D01*
X73155690Y-38683750D02*
X72152751Y-38683750D01*
X73490690Y-38683750D02*
X73490690Y-39599750D01*
X81290690Y-38683750D02*
X81290690Y-39599750D01*
X81625690Y-38683750D02*
X73155690Y-38683750D01*
X82628629Y-38683750D02*
X81625690Y-38683750D01*
X84900690Y-38683750D02*
X84900690Y-39597270D01*
X84900690Y-38683750D02*
X83552750Y-38683750D01*
X87390690Y-38683750D02*
X84900690Y-38683750D01*
X67390690Y-89903750D02*
G75*
G02*
X66811039Y-89483679I100J610100D01*
G01*
X87970366Y-89483687D02*
G75*
G02*
X87390690Y-89903750I-579677J189939D01*
G01*
X66811014Y-39103813D02*
G75*
G02*
X67390690Y-38683750I579676J-189937D01*
G01*
X87390690Y-38683750D02*
G75*
G02*
X87970366Y-39103750I-16J-610051D01*
G01*
%TD*%
M02*
