M48
; DRILL file {KiCad 9.0.7} date 2026-01-28T21:36:42+1100
; FORMAT={-:-/ absolute / metric / decimal}
; #@! TF.CreationDate,2026-01-28T21:36:42+11:00
; #@! TF.GenerationSoftware,Kicad,Pcbnew,9.0.7
; #@! TF.FileFunction,NonPlated,1,2,NPTH
FMAT,2
METRIC
; #@! TA.AperFunction,NonPlated,NPTH,ComponentDrill
T1C1.750
; #@! TA.AperFunction,NonPlated,NPTH,ComponentDrill
T2C3.048
; #@! TA.AperFunction,NonPlated,NPTH,ComponentDrill
T3C3.988
%
G90
G05
T1
X20.796Y-42.862
X23.177Y-23.812
X23.177Y-42.862
X25.559Y-42.862
X30.321Y-61.912
X30.956Y-42.862
X33.337Y-23.812
X33.337Y-42.862
X35.719Y-42.862
X40.481Y-61.912
X46.99Y-23.812
X51.752Y-42.862
X57.15Y-23.812
X61.277Y-61.912
X61.912Y-42.862
X66.04Y-23.812
X70.802Y-42.862
X71.438Y-61.912
X76.2Y-23.812
X80.328Y-61.912
X80.962Y-42.862
X85.09Y-23.812
X89.852Y-42.862
X90.487Y-61.912
X95.25Y-23.812
X99.377Y-61.912
X100.012Y-42.862
X104.14Y-23.812
X108.902Y-42.862
X109.537Y-61.912
X114.3Y-23.812
X118.427Y-61.912
X119.062Y-42.862
X123.19Y-23.812
X127.953Y-42.862
X128.588Y-61.912
X133.35Y-23.812
X137.477Y-61.912
X138.112Y-42.862
X142.24Y-23.812
X147.002Y-42.862
X147.637Y-61.912
X152.4Y-23.812
X156.528Y-61.912
X157.162Y-42.862
X161.29Y-23.812
X166.052Y-42.862
X166.688Y-61.912
X171.45Y-23.812
X175.577Y-61.912
X176.213Y-42.862
X180.34Y-23.812
X185.102Y-42.862
X185.737Y-61.912
X190.5Y-23.812
X194.627Y-61.912
X195.262Y-42.862
X199.39Y-23.812
X204.153Y-42.862
X204.787Y-61.912
X209.55Y-23.812
X213.677Y-61.912
X214.312Y-42.862
X218.44Y-23.812
X223.202Y-42.862
X223.837Y-61.912
X228.6Y-23.812
X232.727Y-61.912
X233.362Y-42.862
X237.49Y-23.812
X242.252Y-42.862
X242.887Y-61.912
X247.65Y-23.812
X252.412Y-42.862
X256.54Y-23.812
X266.7Y-23.812
X268.446Y-61.912
X273.209Y-42.862
X278.606Y-61.912
X280.352Y-23.812
X283.369Y-42.862
X290.512Y-23.812
T2
X23.495Y-68.897
X47.307Y-68.897
X261.62Y-68.897
X266.382Y-49.847
X285.433Y-68.897
X290.195Y-49.847
T3
X23.495Y-53.657
X25.876Y-42.862
X28.258Y-23.812
X28.258Y-42.862
X30.639Y-42.862
X35.401Y-61.912
X47.307Y-53.657
X52.07Y-23.812
X56.832Y-42.862
X66.358Y-61.912
X71.12Y-23.812
X75.882Y-42.862
X85.407Y-61.912
X90.17Y-23.812
X94.932Y-42.862
X104.457Y-61.912
X109.22Y-23.812
X113.983Y-42.862
X123.507Y-61.912
X128.27Y-23.812
X133.032Y-42.862
X142.558Y-61.912
X147.32Y-23.812
X152.082Y-42.862
X161.607Y-61.912
X166.37Y-23.812
X171.132Y-42.862
X180.657Y-61.912
X185.42Y-23.812
X190.183Y-42.862
X199.707Y-61.912
X204.47Y-23.812
X209.232Y-42.862
X218.757Y-61.912
X223.52Y-23.812
X228.282Y-42.862
X237.807Y-61.912
X242.57Y-23.812
X247.332Y-42.862
X261.62Y-23.812
X261.62Y-53.657
X266.382Y-34.608
X273.526Y-61.912
X278.289Y-42.862
X285.433Y-23.812
X285.433Y-53.657
X290.195Y-34.608
M30
