M48
; DRILL file {KiCad 9.0.7} date 2026-01-28T21:36:42+1100
; FORMAT={-:-/ absolute / metric / decimal}
; #@! TF.CreationDate,2026-01-28T21:36:42+11:00
; #@! TF.GenerationSoftware,Kicad,Pcbnew,9.0.7
; #@! TF.FileFunction,Plated,1,2,PTH
FMAT,2
METRIC
; #@! TA.AperFunction,Plated,PTH,ComponentDrill
T1C1.000
; #@! TA.AperFunction,Plated,PTH,ComponentDrill
T2C1.524
%
G90
G05
T1
X296.148Y-21.034
X296.148Y-23.574
X296.148Y-26.114
X296.148Y-28.654
X296.148Y-31.194
X296.148Y-33.734
X296.148Y-36.274
X296.148Y-38.814
X296.148Y-41.354
X296.148Y-43.894
X296.148Y-46.434
X296.148Y-48.974
X296.148Y-51.514
X296.148Y-54.054
X296.148Y-56.594
X296.148Y-59.134
X296.148Y-61.674
X296.148Y-64.214
T2
X22.066Y-40.322
X24.447Y-21.272
X24.447Y-40.322
X26.829Y-40.322
X28.416Y-37.782
X30.797Y-18.732
X30.797Y-37.782
X31.591Y-59.372
X33.179Y-37.782
X37.941Y-56.832
X48.26Y-21.272
X53.023Y-40.322
X54.61Y-18.732
X59.372Y-37.782
X62.547Y-59.372
X67.31Y-21.272
X68.897Y-56.832
X72.072Y-40.322
X73.66Y-18.732
X78.422Y-37.782
X81.597Y-59.372
X86.36Y-21.272
X87.947Y-56.832
X91.123Y-40.322
X92.71Y-18.732
X97.472Y-37.782
X100.647Y-59.372
X105.41Y-21.272
X106.997Y-56.832
X110.172Y-40.322
X111.76Y-18.732
X116.522Y-37.782
X119.697Y-59.372
X124.46Y-21.272
X126.047Y-56.832
X129.222Y-40.322
X130.81Y-18.732
X135.572Y-37.782
X138.748Y-59.372
X143.51Y-21.272
X145.097Y-56.832
X148.272Y-40.322
X149.86Y-18.732
X154.623Y-37.782
X157.797Y-59.372
X162.56Y-21.272
X164.147Y-56.832
X167.322Y-40.322
X168.91Y-18.732
X173.672Y-37.782
X176.847Y-59.372
X181.61Y-21.272
X183.197Y-56.832
X186.373Y-40.322
X187.96Y-18.732
X192.722Y-37.782
X195.897Y-59.372
X200.66Y-21.272
X202.248Y-56.832
X205.422Y-40.322
X207.01Y-18.732
X211.772Y-37.782
X214.947Y-59.372
X219.71Y-21.272
X221.297Y-56.832
X224.472Y-40.322
X226.06Y-18.732
X230.822Y-37.782
X233.998Y-59.372
X238.76Y-21.272
X240.347Y-56.832
X243.522Y-40.322
X245.11Y-18.732
X249.873Y-37.782
X257.81Y-21.272
X264.16Y-18.732
X269.716Y-59.372
X274.479Y-40.322
X276.066Y-56.832
X280.829Y-37.782
X281.623Y-21.272
X287.972Y-18.732
M30
