%TF.GenerationSoftware,KiCad,Pcbnew,9.0.7*%
%TF.CreationDate,2026-01-28T21:36:59+11:00*%
%TF.ProjectId,stratokeyster_fretboard,73747261-746f-46b6-9579-737465725f66,rev?*%
%TF.SameCoordinates,Original*%
%TF.FileFunction,Paste,Bot*%
%TF.FilePolarity,Positive*%
%FSLAX46Y46*%
G04 Gerber Fmt 4.6, Leading zero omitted, Abs format (unit mm)*
G04 Created by KiCad (PCBNEW 9.0.7) date 2026-01-28 21:36:59*
%MOMM*%
%LPD*%
G01*
G04 APERTURE LIST*
G04 Aperture macros list*
%AMRoundRect*
0 Rectangle with rounded corners*
0 $1 Rounding radius*
0 $2 $3 $4 $5 $6 $7 $8 $9 X,Y pos of 4 corners*
0 Add a 4 corners polygon primitive as box body*
4,1,4,$2,$3,$4,$5,$6,$7,$8,$9,$2,$3,0*
0 Add four circle primitives for the rounded corners*
1,1,$1+$1,$2,$3*
1,1,$1+$1,$4,$5*
1,1,$1+$1,$6,$7*
1,1,$1+$1,$8,$9*
0 Add four rect primitives between the rounded corners*
20,1,$1+$1,$2,$3,$4,$5,0*
20,1,$1+$1,$4,$5,$6,$7,0*
20,1,$1+$1,$6,$7,$8,$9,0*
20,1,$1+$1,$8,$9,$2,$3,0*%
G04 Aperture macros list end*
%ADD10RoundRect,0.250000X-0.250000X0.250000X-0.250000X-0.250000X0.250000X-0.250000X0.250000X0.250000X0*%
%ADD11RoundRect,0.250000X0.250000X-0.250000X0.250000X0.250000X-0.250000X0.250000X-0.250000X-0.250000X0*%
G04 APERTURE END LIST*
D10*
%TO.C,D38*%
X246141875Y-54709375D03*
X246141875Y-57209375D03*
%TD*%
%TO.C,D6*%
X136604375Y-16609375D03*
X136604375Y-19109375D03*
%TD*%
D11*
%TO.C,D15*%
X38973125Y-40540625D03*
X38973125Y-38040625D03*
%TD*%
D10*
%TO.C,D9*%
X193754375Y-16609375D03*
X193754375Y-19109375D03*
%TD*%
D11*
%TO.C,D26*%
X255666875Y-40540625D03*
X255666875Y-38040625D03*
%TD*%
D10*
%TO.C,D11*%
X231854375Y-16609375D03*
X231854375Y-19109375D03*
%TD*%
%TO.C,D35*%
X188991875Y-54709375D03*
X188991875Y-57209375D03*
%TD*%
D11*
%TO.C,D25*%
X236616875Y-40540625D03*
X236616875Y-38040625D03*
%TD*%
D10*
%TO.C,D32*%
X131841875Y-54709375D03*
X131841875Y-57209375D03*
%TD*%
%TO.C,D14*%
X277098125Y-16609375D03*
X277098125Y-19109375D03*
%TD*%
D11*
%TO.C,D23*%
X198516875Y-40540625D03*
X198516875Y-38040625D03*
%TD*%
%TO.C,D19*%
X122316875Y-40540625D03*
X122316875Y-38040625D03*
%TD*%
%TO.C,D39*%
X256857500Y-59590625D03*
X256857500Y-57090625D03*
%TD*%
D10*
%TO.C,D2*%
X60404375Y-16609375D03*
X60404375Y-19109375D03*
%TD*%
%TO.C,D28*%
X52070000Y-54709375D03*
X52070000Y-57209375D03*
%TD*%
%TO.C,D12*%
X250904375Y-16609375D03*
X250904375Y-19109375D03*
%TD*%
D11*
%TO.C,D24*%
X217566875Y-40540625D03*
X217566875Y-38040625D03*
%TD*%
%TO.C,D21*%
X160416875Y-40540625D03*
X160416875Y-38040625D03*
%TD*%
D10*
%TO.C,D10*%
X212804375Y-16668750D03*
X212804375Y-19168750D03*
%TD*%
%TO.C,D31*%
X112791875Y-54709375D03*
X112791875Y-57209375D03*
%TD*%
D11*
%TO.C,D22*%
X179466875Y-40540625D03*
X179466875Y-38040625D03*
%TD*%
D10*
%TO.C,D1*%
X36591875Y-16609375D03*
X36591875Y-19109375D03*
%TD*%
%TO.C,D3*%
X79454375Y-16609375D03*
X79454375Y-19109375D03*
%TD*%
%TO.C,D8*%
X174704375Y-16609375D03*
X174704375Y-19109375D03*
%TD*%
D11*
%TO.C,D18*%
X103266875Y-40540625D03*
X103266875Y-38040625D03*
%TD*%
D10*
%TO.C,D30*%
X93741875Y-54709375D03*
X93741875Y-57209375D03*
%TD*%
D11*
%TO.C,D16*%
X65166875Y-40540625D03*
X65166875Y-38040625D03*
%TD*%
D10*
%TO.C,D29*%
X74691875Y-54709375D03*
X74691875Y-57209375D03*
%TD*%
%TO.C,D7*%
X155654375Y-16609375D03*
X155654375Y-19109375D03*
%TD*%
%TO.C,D4*%
X98504375Y-16609375D03*
X98504375Y-19109375D03*
%TD*%
%TO.C,D36*%
X208041875Y-54709375D03*
X208041875Y-57209375D03*
%TD*%
%TO.C,D5*%
X117554375Y-16609375D03*
X117554375Y-19109375D03*
%TD*%
D11*
%TO.C,D27*%
X261620000Y-40540625D03*
X261620000Y-38040625D03*
%TD*%
%TO.C,D20*%
X141366875Y-40540625D03*
X141366875Y-38040625D03*
%TD*%
D10*
%TO.C,D13*%
X269954375Y-16609375D03*
X269954375Y-19109375D03*
%TD*%
D11*
%TO.C,D17*%
X84216875Y-40540625D03*
X84216875Y-38040625D03*
%TD*%
D10*
%TO.C,D33*%
X150891875Y-54709375D03*
X150891875Y-57209375D03*
%TD*%
%TO.C,D34*%
X169941875Y-54709375D03*
X169941875Y-57209375D03*
%TD*%
%TO.C,D37*%
X227091875Y-54709375D03*
X227091875Y-57209375D03*
%TD*%
M02*
